# Blender 4.0.2
# www.blender.org
mtllib shield.mtl
o Cube
v -0.068068 1.319544 -1.205935
v -0.068068 -0.208323 -1.000000
v -0.383460 1.319544 -1.205935
v -0.204961 1.165238 -1.064913
v -0.383460 -0.208323 -1.000000
v -0.204961 -0.183962 -0.883061
v -0.005598 -0.883061 0.000000
v -0.157696 -1.000000 0.000000
v 0.157696 1.765452 0.000000
v -0.005598 1.559002 0.000000
v -0.157696 1.765452 0.000000
v 0.157696 -1.000000 0.000000
v -0.254153 1.402305 -0.500000
v -0.090776 1.238320 -0.441530
v 0.061238 -0.680456 -0.500000
v -0.254153 -0.680456 -0.500000
v -0.090776 -0.600884 -0.441530
v 0.061238 1.402305 -0.500000
v -0.068068 1.319544 1.205935
v -0.068068 -0.208323 1.000000
v -0.204961 1.165238 1.064913
v -0.383460 1.319544 1.205935
v -0.204961 -0.183962 0.883061
v -0.383460 -0.208323 1.000000
v -0.090776 1.238320 0.441530
v -0.254153 1.402305 0.500000
v 0.061238 -0.680456 0.500000
v -0.254153 -0.680456 0.500000
v -0.090776 -0.600884 0.441530
v 0.061238 1.402305 0.500000
v 0.072517 1.238320 -0.441530
v 0.061238 -0.545673 -0.500000
v 0.061238 1.231465 -0.500000
v 0.072517 -0.600884 -0.441530
v 0.157696 -0.883061 0.000000
v 0.157696 1.559002 0.000000
v -0.046390 0.061705 -0.916173
v 0.047004 1.225013 -0.555038
v -0.046390 1.165238 -1.064913
v -0.037827 -0.183962 -0.883061
v 0.072517 -0.600884 0.441530
v 0.072517 1.238320 0.441530
v 0.061238 -0.545673 0.500000
v 0.061238 1.231465 0.500000
v -0.037827 -0.183962 0.883061
v -0.046390 0.061705 0.916173
v 0.047004 1.225013 0.555038
v -0.046390 1.165238 1.064913
vn -0.9769 0.0122 0.2134
vn -0.0000 -0.1336 -0.9910
vn 0.9819 -0.0000 -0.1894
vn -0.0000 -0.8426 -0.5385
vn -0.0000 0.8091 -0.5877
vn -0.0000 0.9932 -0.1164
vn -0.0000 -0.7271 -0.6866
vn 0.9807 -0.0183 -0.1946
vn -0.9819 -0.0000 0.1894
vn -0.9769 0.0122 -0.2134
vn -0.0000 -0.1336 0.9910
vn 0.9819 -0.0000 0.1894
vn -0.0000 -0.8426 0.5385
vn -0.0000 0.8091 0.5877
vn -0.0000 0.9932 0.1164
vn -0.0000 -0.7271 0.6866
vn 0.9807 -0.0183 0.1946
vn -0.9819 -0.0000 -0.1894
vn 0.9769 -0.0122 -0.2134
vn -0.0000 0.1336 0.9910
vn -0.0000 0.8426 0.5385
vn -0.0000 -0.8091 0.5877
vn -0.0000 -0.9932 0.1164
vn -0.0000 0.7271 0.6866
vn 0.9769 -0.0122 0.2134
vn -0.0000 0.1336 -0.9910
vn -0.0000 0.8426 -0.5385
vn -0.0000 -0.8091 -0.5877
vn -0.0000 -0.9932 -0.1164
vn -0.0000 0.7271 -0.6866
vt 0.524648 0.687054
vt 0.524648 0.443591
vt 0.620498 0.453265
vt 0.620498 0.631864
vt 0.553990 0.401141
vt 0.375391 0.401141
vt 0.375391 0.167352
vt 0.553990 0.167351
vt 0.365716 0.071501
vt 0.323266 0.000000
vt 0.347399 0.000000
vt 0.384885 0.063140
vt 0.385687 0.071501
vt 0.646533 -0.000000
vt 0.609180 0.071501
vt 0.593424 0.071501
vt 0.599878 0.063140
vt 0.632863 0.000000
vt 0.453147 0.496991
vt 0.453147 0.730780
vt 0.408359 0.802281
vt 0.408359 0.568492
vt 0.187636 0.472642
vt 0.187636 0.706431
vt 0.119250 0.634930
vt 0.119250 0.401141
vt 0.269326 0.568492
vt 0.269326 0.802281
vt 0.609180 0.305290
vt 0.386441 0.082052
vt 0.393428 0.151282
vt 0.522425 0.151282
vt 0.551142 0.144934
vt 0.453147 0.724407
vt 0.453147 0.401141
vt 0.716349 0.687054
vt 0.716349 0.443591
vt 0.230724 -0.000000
vt 0.230724 0.233789
vt 0.052124 0.233789
vt 0.052124 -0.000000
vt 0.024133 0.401141
vt 0.000000 0.401141
vt 0.042450 0.329640
vt 0.062420 0.329640
vt 0.061619 0.338001
vt 0.270158 0.329640
vt 0.285913 0.329640
vt 0.323266 0.401141
vt 0.309597 0.401141
vt 0.276612 0.338001
vt 0.341480 0.496991
vt 0.341480 0.730780
vt 0.075969 0.472642
vt 0.075969 0.706431
vt -0.000000 0.568492
vt 0.000000 0.802281
vt 0.269326 0.401141
vt 0.269326 0.634930
vt 0.227876 0.256207
vt 0.199159 0.249859
vt 0.070162 0.249859
vt 0.063174 0.319089
vt 0.787850 0.724407
vt 0.787850 0.401141
vt 0.646533 0.046029
vt 0.731175 0.037486
vt 0.731175 0.252479
vt 0.646533 0.203743
vt 0.882456 0.000000
vt 1.000000 0.000000
vt 1.000000 0.157714
vt 0.876109 0.157714
vt 0.882456 0.128997
vt 0.798307 0.963439
vt 0.690978 0.907474
vt 0.765251 0.901597
vt 0.872580 0.957563
vt 0.558452 0.993233
vt 0.558452 0.872189
vt 0.618841 0.809049
vt 0.618841 0.930093
vt 0.690978 0.724407
vt 0.690978 0.841951
vt 0.631976 0.911181
vt 0.625607 0.921732
vt 0.915358 0.206450
vt 0.794314 0.206450
vt 0.802676 0.199996
vt 0.794314 0.000000
vt 0.794314 0.285464
vt 0.935631 0.447170
vt 0.935631 0.604884
vt 0.850990 0.653620
vt 0.850990 0.438627
vt 0.911858 0.335447
vt 0.918206 0.364164
vt 0.794314 0.364164
vt 0.794314 0.206450
vt 0.911858 0.206450
vt 0.736571 0.820038
vt 0.843900 0.876003
vt 0.520232 0.930093
vt 0.520232 0.809049
vt 0.513940 0.921732
vt 0.508017 0.911181
vt 0.453147 0.841951
vt 0.453147 0.724407
vt 0.690978 0.724407
vt 0.800832 0.781689
vt 0.840387 0.864656
vt 0.787850 0.686604
vt 0.787850 0.401141
s 0
usemtl Material
f 16/1/1 13/2/1 3/3/1 5/4/1
f 5/5/2 3/6/2 1/7/2 2/8/2
f 18/9/3 9/10/3 36/11/3 31/12/3 33/13/3
f 12/14/3 15/15/3 32/16/3 34/17/3 35/18/3
f 16/19/4 15/20/4 12/21/4 8/22/4
f 18/23/5 13/24/5 11/25/5 9/26/5
f 1/27/6 3/28/6 13/24/6 18/23/6
f 5/5/7 2/8/7 15/15/7 16/29/7
f 15/15/8 2/8/8 1/7/8 18/9/8 33/13/8 38/30/8 39/31/8 37/32/8 40/33/8 32/16/8
f 8/34/9 11/35/9 13/2/9 16/1/9
f 28/36/10 24/4/10 22/3/10 26/37/10
f 24/38/11 20/39/11 19/40/11 22/41/11
f 36/42/12 9/43/12 30/44/12 44/45/12 42/46/12
f 43/47/12 27/48/12 12/49/12 35/50/12 41/51/12
f 28/52/13 8/22/13 12/21/13 27/53/13
f 30/54/14 9/26/14 11/25/14 26/55/14
f 19/56/15 30/54/15 26/55/15 22/57/15
f 24/58/16 28/52/16 27/53/16 20/59/16
f 44/45/17 30/44/17 19/40/17 20/39/17 27/48/17 43/47/17 45/60/17 46/61/17 48/62/17 47/63/17
f 8/64/18 28/36/18 26/37/18 11/65/18
f 4/66/19 14/67/19 17/68/19 6/69/19
f 39/70/20 4/71/20 6/72/20 40/73/20 37/74/20
f 34/75/21 17/76/21 7/77/21 35/78/21
f 36/79/22 10/80/22 14/81/22 31/82/22
f 31/82/23 14/81/23 4/83/23 39/84/23 38/85/23 33/86/23
f 40/73/24 6/72/24 17/87/24 34/88/24 32/89/24
f 14/67/3 10/90/3 7/91/3 17/68/3
f 21/92/25 23/93/25 29/94/25 25/95/25
f 46/96/26 45/97/26 23/98/26 21/99/26 48/100/26
f 35/78/27 7/77/27 29/101/27 41/102/27
f 10/80/28 36/79/28 42/103/28 25/104/28
f 25/104/29 42/103/29 44/105/29 47/106/29 48/107/29 21/108/29
f 41/102/30 29/101/30 23/109/30 45/110/30 43/111/30
f 25/95/12 29/94/12 7/112/12 10/113/12
