# Blender v3.1.2 OBJ File: ''
# www.blender.org
mtllib plusScrew.mtl
o 円.002_円.004
v -0.140275 0.359047 -0.063007
v -0.152739 -0.504183 -0.005749
v -0.151762 0.359047 -0.005260
v -0.141155 -0.504183 0.052487
v -0.140275 0.359047 0.052486
v -0.108167 -0.504183 0.101857
v -0.107564 0.359047 0.101442
v -0.058797 -0.504183 0.134845
v -0.058609 0.359047 0.134153
v -0.000562 0.359047 0.145639
v -0.000562 -0.504183 0.146429
v -0.000562 0.359047 -0.156160
v -0.058797 -0.504183 -0.146343
v -0.058609 0.359047 -0.144674
v -0.108167 -0.504183 -0.113355
v -0.107564 0.359047 -0.111963
v -0.141155 -0.504183 -0.063985
v -0.184074 0.408744 -0.446471
v -0.339144 0.408744 -0.342856
v -0.442759 0.408744 -0.187786
v -0.479144 0.408744 -0.004869
v -0.442759 0.408744 0.178049
v -0.339144 0.408744 0.333119
v -0.184075 0.408744 0.436733
v -0.000562 0.408744 0.473118
v -0.000562 0.408744 -0.482855
v -0.486139 0.447471 -0.005528
v -0.449242 0.447471 -0.191018
v -0.449242 0.447471 0.179963
v -0.344170 0.447471 0.337215
v -0.186919 0.447471 0.442287
v -0.000562 0.447471 0.479183
v -0.000562 0.447471 -0.490238
v -0.344170 0.447471 -0.348270
v -0.186919 0.447471 -0.453342
v -0.133682 0.483654 -0.311690
v -0.243787 0.483654 -0.238120
v -0.362228 0.478835 0.000879
v -0.362228 0.476871 -0.038524
v -0.317357 0.483654 0.131742
v -0.335164 0.483654 0.042218
v -0.362228 0.476732 0.042218
v -0.243787 0.483654 0.241847
v -0.000562 0.477884 0.363246
v -0.041201 0.475906 0.363246
v -0.041201 0.483654 -0.330085
v -0.041201 0.476651 -0.359552
v -0.041201 0.483654 -0.330085
v -0.133682 0.483654 0.315417
v -0.110053 0.507698 0.112109
v -0.061175 0.507698 0.144769
v -0.041201 0.483654 0.333812
v -0.041201 0.507698 0.148742
v -0.041201 0.507698 -0.137593
v -0.041201 0.507698 -0.137593
v -0.061175 0.507698 -0.133620
v -0.317357 0.483654 -0.128014
v -0.110053 0.507698 -0.100960
v -0.142713 0.507698 -0.052081
v -0.335158 0.483654 -0.038524
v -0.145409 0.507698 -0.038524
v -0.146892 0.507698 0.042218
v -0.142713 0.507698 0.063231
v -0.041201 0.507698 -0.038524
v -0.041201 0.507698 -0.038524
v -0.041201 0.507698 0.042218
v -0.041201 0.475098 0.363246
v -0.041201 0.475098 0.041545
v -0.041201 0.475098 -0.041867
v 0.151615 -0.504183 -0.005749
v 0.139151 0.359047 -0.063007
v 0.150638 0.359047 -0.005260
v 0.140031 -0.504183 0.052487
v 0.139151 0.359047 0.052486
v 0.107043 -0.504183 0.101857
v 0.106441 0.359047 0.101442
v 0.057673 -0.504183 0.134845
v 0.057485 0.359047 0.134153
v 0.057673 -0.504183 -0.146343
v 0.057485 0.359047 -0.144674
v 0.107043 -0.504183 -0.113355
v 0.106441 0.359047 -0.111963
v 0.140031 -0.504183 -0.063985
v 0.182951 0.408744 -0.446471
v 0.338021 0.408744 -0.342856
v 0.441635 0.408744 -0.187786
v 0.478020 0.408744 -0.004869
v 0.441635 0.408744 0.178049
v 0.338021 0.408744 0.333119
v 0.182951 0.408744 0.436733
v 0.485015 0.447471 -0.005528
v 0.448118 0.447471 0.179963
v 0.343046 0.447471 0.337215
v 0.185795 0.447471 0.442287
v 0.343046 0.447471 -0.348270
v 0.448118 0.447471 -0.191018
v 0.132558 0.483654 -0.311690
v 0.185795 0.447471 -0.453342
v 0.242663 0.483654 -0.238120
v 0.316233 0.483654 -0.128014
v 0.334034 0.483654 -0.038524
v 0.361104 0.476871 -0.038524
v 0.361104 0.476732 0.042218
v 0.316233 0.483654 0.131742
v 0.242663 0.483654 0.241847
v 0.040077 0.475906 0.363246
v 0.040077 0.476651 -0.359552
v 0.040077 0.483654 -0.330085
v 0.040077 0.483654 -0.330085
v 0.108929 0.507698 0.112109
v 0.132558 0.483654 0.315417
v 0.040077 0.483654 0.333812
v 0.060051 0.507698 0.144769
v 0.040077 0.507698 0.148742
v 0.040077 0.507698 -0.137593
v 0.040077 0.507698 -0.137593
v 0.060051 0.507698 -0.133620
v 0.108929 0.507698 -0.100960
v 0.141589 0.507698 -0.052081
v 0.144286 0.507698 -0.038524
v 0.145768 0.507698 0.042218
v 0.141589 0.507698 0.063231
v 0.040077 0.507698 -0.038524
v 0.040077 0.507698 -0.038524
v 0.040077 0.507698 0.042218
v 0.040077 0.475098 0.363246
v 0.040077 0.475098 -0.041867
v 0.040077 0.475098 -0.359552
v 0.334040 0.483654 0.042218
v 0.040077 0.475098 0.041545
v 0.361104 0.478835 0.000879
v -0.000562 0.478435 -0.359552
v -0.000562 -0.504183 -0.157926
v -0.041201 0.475098 -0.359552
vt 0.704743 0.497549
vt 0.674428 0.868476
vt 0.674168 0.497113
vt 0.643594 0.868915
vt 0.643593 0.497549
vt 0.617453 0.870167
vt 0.617671 0.498790
vt 0.113628 0.506282
vt 0.087807 0.876023
vt 0.087708 0.504893
vt 0.056974 0.504406
vt 0.056974 0.875531
vt 0.788375 0.497113
vt 0.757541 0.868937
vt 0.757641 0.497534
vt 0.731401 0.870146
vt 0.731720 0.498732
vt 0.730663 0.498790
vt 0.705262 0.868915
vt 1.000000 0.198720
vt 0.818382 0.204010
vt 0.962155 0.107513
vt 0.796325 0.181980
vt 0.892287 0.037732
vt 0.767517 0.170068
vt 0.801033 0.000000
vt 0.736342 0.170087
vt 0.702286 0.000061
vt 0.707548 0.182035
vt 0.611080 0.037907
vt 0.541298 0.107774
vt 0.685519 0.204092
vt 0.503505 0.199337
vt 0.673576 0.233057
vt 1.000000 0.297776
vt 0.830330 0.232803
vt 0.312543 0.589374
vt 0.294236 0.685874
vt 0.295635 0.587663
vt 0.311163 0.686223
vt 0.295635 0.784087
vt 0.312543 0.783073
vt 0.299621 0.867350
vt 0.868199 0.499774
vt 0.846915 0.580373
vt 0.851374 0.497113
vt 0.863801 0.581879
vt 0.845349 0.679043
vt 0.334742 0.783501
vt 0.316474 0.686336
vt 0.333409 0.686336
vt 0.321673 0.868267
vt 0.317825 0.785007
vt 0.316474 0.507272
vt 0.299621 0.504406
vt 0.394434 0.465914
vt 0.397117 0.352835
vt 0.465178 0.395044
vt 0.301955 0.504317
vt 0.347583 0.402457
vt 0.201819 0.504406
vt 0.211266 0.439396
vt 0.231729 0.443447
vt 0.147917 0.402634
vt 0.192583 0.421089
vt 0.189793 0.435144
vt 0.038402 0.395424
vt 0.109272 0.466168
vt 0.000000 0.302945
vt 0.098295 0.353101
vt 0.000000 0.202359
vt 0.060247 0.214287
vt 0.056066 0.235394
vt 0.416181 0.306693
vt 0.431479 0.309721
vt 0.271997 0.504406
vt 0.271997 0.504406
vt 0.271997 0.504406
vt 0.071406 0.288348
vt 0.179455 0.296987
vt 0.167519 0.268241
vt 0.071362 0.238423
vt 0.167509 0.257459
vt 0.271997 0.504406
vt 0.316228 0.286903
vt 0.312110 0.296869
vt 0.282831 0.429346
vt 0.290121 0.318897
vt 0.261376 0.330834
vt 0.234520 0.429389
vt 0.254057 0.330840
vt 0.211968 0.323308
vt 0.201484 0.318976
vt 0.271997 0.504406
vt 0.271997 0.504406
vt 0.264773 0.276716
vt 0.222836 0.268413
vt 0.409889 0.674737
vt 0.409889 0.504406
vt 0.413570 0.659153
vt 0.448285 0.658779
vt 0.437941 0.556860
vt 0.451967 0.506176
vt 0.395730 0.504406
vt 0.409889 0.559581
vt 0.399550 0.660048
vt 0.479997 0.618420
vt 0.465993 0.674381
vt 0.469650 0.518736
vt 0.223153 0.268475
vt 0.560478 0.868476
vt 0.530163 0.497549
vt 0.560738 0.497113
vt 0.591312 0.868915
vt 0.591314 0.497549
vt 0.617453 0.870167
vt 0.617235 0.498790
vt 0.026140 0.876023
vt 0.000319 0.506282
vt 0.026239 0.504893
vt 0.819209 0.868937
vt 0.819109 0.497534
vt 0.845349 0.870146
vt 0.845030 0.498732
vt 0.529644 0.868915
vt 0.504244 0.498790
vt 0.796346 0.315155
vt 0.962207 0.389338
vt 0.892425 0.459206
vt 0.767552 0.327103
vt 0.801219 0.497052
vt 0.736378 0.327122
vt 0.702472 0.497113
vt 0.707569 0.315210
vt 0.611218 0.459381
vt 0.685512 0.293181
vt 0.541350 0.389600
vt 0.503505 0.298393
vt 0.673564 0.264387
vt 0.818376 0.293098
vt 0.290305 0.782381
vt 0.271997 0.685882
vt 0.288925 0.685533
vt 0.273397 0.587669
vt 0.290305 0.588682
vt 0.277383 0.504406
vt 0.294236 0.506574
vt 0.868199 0.858313
vt 0.846915 0.777714
vt 0.863801 0.776208
vt 0.862257 0.679043
vt 0.334742 0.589172
vt 0.321673 0.504406
vt 0.338537 0.507067
vt 0.294236 0.864483
vt 0.273397 0.784093
vt 0.424495 0.214553
vt 0.465102 0.108982
vt 0.503505 0.201461
vt 0.397606 0.149800
vt 0.394233 0.038238
vt 0.347984 0.100266
vt 0.303335 0.081818
vt 0.306111 0.067757
vt 0.264175 0.059454
vt 0.213070 0.073555
vt 0.201550 0.000089
vt 0.109071 0.038492
vt 0.148318 0.100444
vt 0.038327 0.109362
vt 0.064424 0.193180
vt 0.503505 0.302047
vt 0.439837 0.267507
vt 0.271997 0.504406
vt 0.271997 0.504406
vt 0.271997 0.504406
vt 0.201974 0.183250
vt 0.098784 0.150066
vt 0.079720 0.196208
vt 0.179985 0.205278
vt 0.175867 0.215244
vt 0.271997 0.504406
vt 0.271997 0.504406
vt 0.324586 0.244688
vt 0.424539 0.264478
vt 0.324576 0.233906
vt 0.312639 0.205160
vt 0.290611 0.183171
vt 0.283847 0.180376
vt 0.242063 0.171303
vt 0.230719 0.171313
vt 0.271997 0.504406
vt 0.271997 0.504406
vt 0.273131 0.234501
vt 0.231194 0.226198
vt 0.423915 0.504406
vt 0.424262 0.504406
vt 0.427596 0.519990
vt 0.465993 0.672611
vt 0.462311 0.520008
vt 0.465993 0.504406
vt 0.395730 0.619205
vt 0.395730 0.674381
vt 0.381571 0.674381
vt 0.490343 0.518736
vt 0.494000 0.674381
vt 0.479997 0.618420
vt 0.231511 0.226261
vt 0.285648 0.063705
vt 0.494768 0.504406
vt 0.494768 0.547440
vt 0.494000 0.525923
vt 0.338537 0.672611
vt 0.338537 0.504406
vt 0.360054 0.504406
vt 0.266476 0.277053
vt 0.125978 0.538667
vt 0.259966 0.538667
vt 0.237736 0.650425
vt 0.113947 0.877423
vt 0.788375 0.868513
vt 0.731401 0.870167
vt 0.830319 0.264134
vt 0.316474 0.865181
vt 0.338537 0.865606
vt 0.435660 0.288614
vt 0.271997 0.504406
vt 0.423915 0.504762
vt 0.423915 0.561164
vt 0.410236 0.674737
vt 0.437941 0.504406
vt 0.451967 0.674381
vt 0.451299 0.674381
vt 0.396634 0.674381
vt 0.409889 0.504406
vt 0.479997 0.674381
vt 0.466672 0.504406
vt 0.000000 0.877423
vt 0.503505 0.870167
vt 0.851374 0.860974
vt 0.317825 0.587666
vt 0.277383 0.867350
vt 0.301686 0.000000
vt 0.261399 0.073512
vt 0.437941 0.617979
vt 0.423915 0.674737
vt 0.437941 0.674381
vt 0.451967 0.674381
vt 0.451967 0.621927
vt 0.465325 0.504406
vt 0.382475 0.504406
vt 0.385392 0.518739
vt 0.493322 0.504406
vt 0.479997 0.674381
vt 0.274834 0.234838
vt 0.381571 0.504406
vt 0.381571 0.672611
vt 0.148208 0.516437
vt 0.177254 0.504406
vt 0.237737 0.516437
vt 0.271997 0.567712
vt 0.271997 0.599150
vt 0.259967 0.628195
vt 0.208691 0.662456
vt 0.113947 0.599150
vt 0.177253 0.662456
vt 0.125978 0.628195
vt 0.113947 0.567712
vn -0.9808 0.0012 -0.1951
vn -0.9808 0.0010 0.1951
vn -0.8315 0.0008 0.5556
vn -0.5556 0.0008 0.8315
vn -0.1948 0.0009 0.9808
vn -0.1944 0.0008 0.9809
vn -0.1951 0.0009 0.9808
vn -0.1941 0.0019 -0.9810
vn -0.5556 0.0017 -0.8315
vn -0.8315 0.0015 -0.5556
vn -0.0851 -0.9882 -0.1274
vn -0.1273 -0.9882 -0.0850
vn -0.1500 -0.9882 -0.0298
vn -0.1500 -0.9882 0.0298
vn -0.1271 -0.9882 0.0849
vn -0.0849 -0.9882 0.1271
vn -0.0297 -0.9882 0.1500
vn -0.0298 -0.9882 -0.1503
vn -0.9652 -0.1776 -0.1920
vn -0.9663 -0.1713 0.1922
vn -0.8202 -0.1644 0.5480
vn -0.5486 -0.1580 0.8210
vn -0.1921 -0.1523 0.9695
vn -0.1920 -0.1527 0.9694
vn -0.1919 -0.1531 0.9694
vn -0.1912 -0.1840 -0.9641
vn -0.1910 -0.1847 -0.9640
vn -0.1912 -0.1838 -0.9642
vn -0.5460 -0.1851 -0.8171
vn -0.8175 -0.1825 -0.5462
vn -0.8175 -0.1824 -0.5462
vn -0.1325 0.9712 -0.1983
vn -0.2018 0.9701 -0.1348
vn -0.2427 0.9689 -0.0483
vn -0.2428 0.9689 -0.0483
vn -0.2475 0.9676 0.0492
vn -0.2131 0.9666 0.1424
vn -0.1438 0.9659 0.2152
vn -0.0477 0.9661 0.2537
vn -0.0470 0.9662 0.2535
vn -0.0496 0.9659 0.2541
vn -0.0459 0.9719 -0.2310
vn -0.0450 0.9719 -0.2309
vn 0.0000 0.0000 1.0000
vn -0.0727 0.9914 0.1088
vn -0.0256 0.9913 0.1288
vn 0.0000 0.0000 0.0000
vn -0.0246 0.9920 -0.1239
vn -0.0704 0.9919 -0.1053
vn -0.1058 0.9919 -0.0707
vn -0.1257 0.9918 -0.0250
vn -0.1266 0.9916 0.0252
vn -0.1082 0.9915 0.0723
vn 0.0000 1.0000 0.0000
vn 1.0000 0.0000 0.0000
vn 0.0092 -0.0728 0.9973
vn -0.0005 0.0191 -0.9998
vn -0.0018 0.0122 -0.9999
vn -0.0020 0.0128 -0.9999
vn 0.0052 0.9987 0.0508
vn 0.9808 0.0012 -0.1951
vn 0.9808 0.0010 0.1951
vn 0.8315 0.0008 0.5556
vn 0.5556 0.0008 0.8315
vn 0.1941 0.0008 0.9810
vn 0.1946 0.0019 -0.9809
vn 0.1948 0.0020 -0.9808
vn 0.1941 0.0019 -0.9810
vn 0.5556 0.0017 -0.8315
vn 0.8315 0.0015 -0.5556
vn 0.0851 -0.9882 -0.1274
vn 0.1273 -0.9882 -0.0850
vn 0.1500 -0.9882 -0.0298
vn 0.1500 -0.9882 0.0298
vn 0.1271 -0.9882 0.0849
vn 0.0849 -0.9882 0.1271
vn 0.0297 -0.9882 0.1500
vn 0.0298 -0.9882 -0.1503
vn 0.9652 -0.1776 -0.1920
vn 0.9663 -0.1713 0.1922
vn 0.8202 -0.1644 0.5480
vn 0.5486 -0.1580 0.8210
vn 0.1921 -0.1523 0.9695
vn 0.1920 -0.1527 0.9694
vn 0.1922 -0.1518 0.9695
vn 0.1910 -0.1848 -0.9640
vn 0.1911 -0.1843 -0.9641
vn 0.1912 -0.1838 -0.9642
vn 0.5460 -0.1851 -0.8171
vn 0.8175 -0.1824 -0.5462
vn 0.1325 0.9712 -0.1983
vn 0.2018 0.9701 -0.1348
vn 0.2428 0.9689 -0.0483
vn 0.2475 0.9676 0.0492
vn 0.2131 0.9666 0.1424
vn 0.1438 0.9659 0.2152
vn 0.0496 0.9659 0.2541
vn 0.0477 0.9661 0.2537
vn 0.0505 0.9658 0.2544
vn 0.0459 0.9718 -0.2311
vn 0.0458 0.9718 -0.2312
vn 0.0459 0.9719 -0.2311
vn 0.0727 0.9914 0.1088
vn 0.0256 0.9913 0.1288
vn 0.0246 0.9920 -0.1239
vn 0.0704 0.9919 -0.1053
vn 0.1058 0.9919 -0.0707
vn 0.1257 0.9918 -0.0250
vn 0.1266 0.9916 0.0252
vn 0.1082 0.9915 0.0723
vn -1.0000 -0.0000 0.0000
vn 0.0000 -0.1020 0.9948
vn 0.0020 0.0128 -0.9999
vn 0.0018 0.0122 -0.9999
vn 0.0005 0.0191 -0.9998
vn -0.0052 0.9987 0.0508
vn 0.0439 -0.9990 -0.0049
vn 0.0015 1.0000 0.0000
vn 0.0114 0.9999 0.0000
vn 0.0000 1.0000 -0.0087
vn 0.0000 -1.0000 0.0000
vn -0.1941 0.0008 0.9810
vn -0.1951 0.0020 -0.9808
vn -0.0297 -0.9882 -0.1503
vn -0.1922 -0.1518 0.9695
vn -0.1909 -0.1851 -0.9640
vn -0.0506 0.9658 0.2542
vn -0.0505 0.9658 0.2544
vn -0.0427 0.9722 -0.2303
vn -0.0434 0.9721 -0.2305
vn -0.0459 0.9718 -0.2311
vn 0.0102 -0.0406 0.9991
vn 0.0000 0.0206 -0.9998
vn -0.0021 0.0080 -1.0000
vn 0.0116 0.9999 0.0000
vn 0.0050 0.9987 -0.0498
vn 0.1951 0.0009 0.9808
vn 0.1951 0.0020 -0.9808
vn 0.0297 -0.9882 -0.1503
vn 0.1919 -0.1531 0.9694
vn 0.1909 -0.1851 -0.9640
vn 0.2427 0.9689 -0.0483
vn 0.0506 0.9658 0.2542
vn 0.0470 0.9662 0.2535
vn 0.0427 0.9722 -0.2303
vn 0.0459 0.9719 -0.2310
vn -0.0102 -0.0406 0.9991
vn -0.0092 -0.0728 0.9973
vn 0.0021 0.0080 -1.0000
vn -0.0050 0.9987 -0.0498
vn -0.0116 0.9999 0.0000
vn -0.0439 -0.9990 -0.0049
vn 0.0000 -0.9999 -0.0105
vn -0.0486 0.9988 -0.0025
vn 0.0486 0.9988 -0.0025
usemtl マテリアル
s 1
f 1/1/1 2/2/1 3/3/1
f 3/3/2 4/4/2 5/5/2
f 5/5/3 6/6/3 7/7/3
f 7/8/4 8/9/4 9/10/4
f 10/11/5 8/9/6 11/12/7
f 12/13/8 13/14/8 14/15/8
f 14/15/9 15/16/9 16/17/9
f 16/18/10 17/19/10 1/1/10
f 18/20/11 16/21/11 19/22/11
f 19/22/12 1/23/12 20/24/12
f 20/24/13 3/25/13 21/26/13
f 21/26/14 5/27/14 22/28/14
f 22/28/15 7/29/15 23/30/15
f 24/31/16 7/29/16 9/32/16
f 25/33/17 9/32/17 10/34/17
f 26/35/18 14/36/18 18/20/18
f 20/37/19 27/38/19 28/39/19
f 21/40/20 29/41/20 27/38/20
f 22/42/21 30/43/21 29/41/21
f 23/44/22 31/45/22 30/46/22
f 24/47/23 32/48/24 31/45/25
f 18/49/26 33/50/27 26/51/28
f 18/49/29 34/52/29 35/53/29
f 19/54/30 28/39/31 34/55/30
f 34/56/32 36/57/32 35/58/32
f 28/59/33 37/60/33 34/56/33
f 27/61/34 38/62/34 39/63/35
f 40/64/36 41/65/36 42/66/36
f 30/67/37 40/64/37 29/68/37
f 31/69/38 43/70/38 30/67/38
f 32/71/39 44/72/40 45/73/41
f 36/57/42 46/74/42 47/75/43
f 46/76/44 48/77/44 47/78/44
f 49/79/45 50/80/45 43/70/45
f 51/81/46 52/82/46 53/83/46
f 46/76/44 54/84/47 48/77/44
f 36/57/48 55/85/48 46/74/48
f 37/60/49 56/86/49 36/57/49
f 57/87/50 58/88/50 37/60/50
f 59/89/51 60/90/51 61/91/51
f 40/64/52 62/92/52 41/65/52
f 43/70/53 63/93/53 40/64/53
f 55/94/47 64/95/47 54/84/47
f 59/89/54 61/91/54 65/96/54
f 51/81/54 53/83/54 66/97/54
f 67/98/55 68/99/55 52/100/55
f 48/101/55 54/102/55 69/103/55
f 69/104/56 61/105/56 60/106/56
f 62/107/57 68/108/58 41/109/59
f 38/62/60 42/66/60 68/110/60
f 70/111/61 71/112/61 72/113/61
f 73/114/62 72/113/62 74/115/62
f 75/116/63 74/115/63 76/117/63
f 77/118/64 76/119/64 78/120/64
f 10/11/65 77/118/65 78/120/65
f 79/121/66 12/13/67 80/122/68
f 81/123/69 80/122/69 82/124/69
f 83/125/70 82/126/70 71/112/70
f 82/127/71 84/128/71 85/129/71
f 71/130/72 85/129/72 86/131/72
f 72/132/73 86/131/73 87/133/73
f 74/134/74 87/133/74 88/135/74
f 76/136/75 88/135/75 89/137/75
f 90/138/76 76/136/76 89/137/76
f 25/33/77 78/139/77 90/138/77
f 80/140/78 26/35/78 84/128/78
f 86/141/79 91/142/79 87/143/79
f 87/143/80 92/144/80 88/145/80
f 88/145/81 93/146/81 89/147/81
f 89/148/82 94/149/82 90/150/82
f 90/150/83 32/48/84 25/151/85
f 33/50/86 84/152/87 26/51/88
f 84/152/89 95/153/89 85/154/89
f 85/155/90 96/156/90 86/141/90
f 97/157/91 95/158/91 98/159/91
f 99/160/92 96/161/92 95/158/92
f 100/162/93 101/163/93 102/164/93
f 103/165/94 104/166/94 92/167/94
f 104/166/95 93/168/95 92/167/95
f 105/169/96 94/170/96 93/168/96
f 106/171/97 32/71/98 94/170/99
f 98/159/100 33/172/101 107/173/102
f 108/174/44 107/175/44 109/176/44
f 110/177/103 111/178/103 105/169/103
f 112/179/104 113/180/104 114/181/104
f 108/174/44 115/182/47 116/183/47
f 116/184/105 97/157/105 108/185/105
f 117/186/106 99/160/106 97/157/106
f 118/187/107 100/162/107 99/160/107
f 101/163/108 119/188/108 120/189/108
f 104/166/109 121/190/109 122/191/109
f 122/191/110 105/169/110 104/166/110
f 116/183/47 123/192/47 124/193/47
f 118/187/54 124/194/54 119/188/54
f 110/177/54 122/191/54 125/195/54
f 126/196/111 106/197/111 112/198/111
f 127/199/111 109/200/111 128/201/111
f 120/202/112 123/203/112 127/204/112
f 129/205/113 130/206/114 121/207/115
f 130/208/116 103/165/116 131/209/116
f 47/210/44 107/211/44 132/212/44
f 69/213/117 47/214/117 132/215/117
f 130/208/54 69/216/118 68/110/119
f 68/110/120 44/72/120 130/208/120
f 2/217/121 79/218/121 73/219/121
f 1/1/1 17/19/1 2/2/1
f 3/3/2 2/2/2 4/4/2
f 5/5/3 4/4/3 6/6/3
f 7/8/4 6/220/4 8/9/4
f 10/11/5 9/10/122 8/9/6
f 12/13/123 133/221/123 13/14/123
f 14/15/9 13/14/9 15/16/9
f 16/18/10 15/222/10 17/19/10
f 18/20/11 14/36/11 16/21/11
f 19/22/12 16/21/12 1/23/12
f 20/24/13 1/23/13 3/25/13
f 21/26/14 3/25/14 5/27/14
f 22/28/15 5/27/15 7/29/15
f 24/31/16 23/30/16 7/29/16
f 25/33/17 24/31/17 9/32/17
f 26/35/18 12/223/124 14/36/18
f 20/37/19 21/40/19 27/38/19
f 21/40/20 22/42/20 29/41/20
f 22/42/21 23/224/21 30/43/21
f 23/44/22 24/47/22 31/45/22
f 24/47/23 25/151/125 32/48/24
f 18/49/26 35/53/126 33/50/27
f 18/49/29 19/225/29 34/52/29
f 19/54/30 20/37/31 28/39/31
f 34/56/32 37/60/32 36/57/32
f 28/59/33 57/87/33 37/60/33
f 39/63/35 60/90/35 57/87/35
f 57/87/35 28/59/34 39/63/35
f 28/59/34 27/61/34 39/63/35
f 38/62/36 27/61/36 42/66/36
f 27/61/36 29/68/36 42/66/36
f 29/68/36 40/64/36 42/66/36
f 30/67/37 43/70/37 40/64/37
f 31/69/38 49/79/38 43/70/38
f 52/82/127 49/79/127 45/73/41
f 49/79/127 31/69/128 45/73/41
f 31/69/128 32/71/39 45/73/41
f 47/75/43 132/226/129 33/172/130
f 33/172/130 35/58/131 47/75/43
f 35/58/131 36/57/42 47/75/43
f 49/79/45 51/81/45 50/80/45
f 51/81/46 49/79/46 52/82/46
f 46/76/44 55/94/47 54/84/47
f 36/57/48 56/86/48 55/85/48
f 37/60/49 58/88/49 56/86/49
f 57/87/50 59/89/50 58/88/50
f 59/89/51 57/87/51 60/90/51
f 40/64/52 63/93/52 62/92/52
f 43/70/53 50/80/53 63/93/53
f 55/94/47 65/227/47 64/95/47
f 55/85/54 56/86/54 65/96/54
f 56/86/54 58/88/54 65/96/54
f 58/88/54 59/89/54 65/96/54
f 66/97/54 62/92/54 63/93/54
f 63/93/54 50/80/54 66/97/54
f 50/80/54 51/81/54 66/97/54
f 66/228/55 53/229/55 68/99/55
f 53/229/55 52/100/55 68/99/55
f 52/100/55 45/230/55 67/98/55
f 54/102/55 64/231/55 69/103/55
f 69/103/55 134/232/55 48/101/55
f 134/232/55 47/233/55 48/101/55
f 60/106/132 39/234/132 69/104/132
f 69/104/112 64/235/112 61/105/112
f 66/236/133 68/108/58 62/107/57
f 68/108/58 42/237/134 41/109/59
f 68/110/119 69/216/118 38/62/135
f 69/216/136 39/63/136 38/62/136
f 70/111/61 83/125/61 71/112/61
f 73/114/62 70/111/62 72/113/62
f 75/116/63 73/114/63 74/115/63
f 77/118/64 75/238/64 76/119/64
f 10/11/137 11/12/137 77/118/137
f 79/121/66 133/221/138 12/13/67
f 81/123/69 79/121/69 80/122/69
f 83/125/70 81/239/70 82/126/70
f 82/127/71 80/140/71 84/128/71
f 71/130/72 82/127/72 85/129/72
f 72/132/73 71/130/73 86/131/73
f 74/134/74 72/132/74 87/133/74
f 76/136/75 74/134/75 88/135/75
f 90/138/76 78/139/76 76/136/76
f 25/33/77 10/34/77 78/139/77
f 80/140/78 12/223/139 26/35/78
f 86/141/79 96/156/79 91/142/79
f 87/143/80 91/142/80 92/144/80
f 88/145/81 92/144/81 93/146/81
f 89/148/82 93/240/82 94/149/82
f 90/150/83 94/149/140 32/48/84
f 33/50/86 98/241/141 84/152/87
f 84/152/89 98/241/89 95/153/89
f 85/155/90 95/242/90 96/156/90
f 97/157/91 99/160/91 95/158/91
f 99/160/92 100/162/92 96/161/92
f 102/164/93 131/209/142 91/243/142
f 91/243/142 96/161/142 102/164/93
f 96/161/142 100/162/93 102/164/93
f 92/167/94 91/243/94 103/165/94
f 91/243/94 131/209/94 103/165/94
f 103/165/94 129/244/94 104/166/94
f 104/166/95 105/169/95 93/168/95
f 105/169/96 111/178/96 94/170/96
f 94/170/99 111/178/143 106/171/97
f 111/178/143 112/179/143 106/171/97
f 106/171/97 44/72/144 32/71/98
f 33/172/145 132/226/145 107/173/145
f 107/173/102 108/185/146 97/157/146
f 97/157/146 98/159/100 107/173/102
f 110/177/103 113/180/103 111/178/103
f 112/179/104 111/178/104 113/180/104
f 108/174/44 109/176/44 115/182/47
f 116/184/105 117/186/105 97/157/105
f 117/186/106 118/187/106 99/160/106
f 118/187/107 119/188/107 100/162/107
f 101/163/108 100/162/108 119/188/108
f 104/166/109 129/244/109 121/190/109
f 122/191/110 110/177/110 105/169/110
f 116/183/47 115/182/47 123/192/47
f 118/187/54 117/186/54 124/194/54
f 117/186/54 116/184/54 124/194/54
f 124/194/54 120/189/54 119/188/54
f 122/191/54 121/190/54 125/195/54
f 125/195/54 114/181/54 113/180/54
f 113/180/54 110/177/54 125/195/54
f 112/198/111 114/245/111 130/246/111
f 114/245/111 125/247/111 130/246/111
f 130/246/111 126/196/111 112/198/111
f 127/199/111 123/248/111 115/249/111
f 115/249/111 109/200/111 127/199/111
f 109/200/111 107/250/111 128/201/111
f 127/204/147 102/251/147 101/252/147
f 101/252/148 120/202/148 127/204/148
f 103/253/149 130/206/114 129/205/113
f 130/206/114 125/254/133 121/207/115
f 102/164/150 127/255/150 131/209/150
f 127/255/151 130/208/151 131/209/151
f 107/256/152 127/257/152 132/215/152
f 127/257/153 69/213/153 132/215/153
f 130/208/54 127/255/54 69/216/54
f 45/73/154 44/72/154 68/110/154
f 44/72/155 106/171/155 130/208/155
f 2/217/121 17/258/121 79/218/121
f 17/258/121 15/259/121 79/218/121
f 15/259/121 133/260/121 79/218/121
f 79/218/121 81/261/121 83/262/121
f 83/262/121 70/263/121 79/218/121
f 70/263/121 73/219/121 79/218/121
f 73/219/121 75/264/121 6/265/121
f 75/264/121 77/266/121 6/265/121
f 77/266/121 8/267/121 6/265/121
f 6/265/121 4/268/121 2/217/121
f 6/265/121 2/217/121 73/219/121
