# Blender v3.1.2 OBJ File: ''
# www.blender.org
mtllib rightArm.mtl
o 立方体.007_立方体.010
v 1.619390 -0.654385 0.672798
v 1.619390 0.654385 0.672798
v 1.619390 -0.654385 -1.146452
v 1.619390 0.654385 -1.146452
v -3.561866 -0.654385 0.672798
v -3.561866 0.654385 0.672798
v -3.561866 -0.654385 -1.146452
v -3.561866 0.654385 -1.146452
v 3.920053 0.838516 0.802680
v 3.920053 -0.838516 0.222929
v 3.920053 0.838516 0.286887
v 3.414065 -0.838516 0.806608
v 3.411100 0.838516 0.806458
v 3.414065 -0.838516 0.287509
v 3.414065 0.838516 0.281813
v 3.411100 -0.838516 0.806458
v 3.411100 -0.838516 -1.329278
v 3.411100 0.838516 -1.329278
v 1.613177 -0.838516 0.806458
v 1.613177 0.838516 0.806458
v 1.613177 -0.838516 -1.329278
v 1.613177 0.838516 -1.329278
v 3.917885 0.838516 0.232960
v 3.920053 -0.838516 -0.240216
v 3.920053 0.838516 -0.252266
v 3.414065 -0.838516 0.226577
v 3.414065 0.838516 0.233253
v 3.414065 -0.838516 -0.252266
v 3.414065 0.838516 -0.252266
v 3.920053 0.838516 -0.293114
v 3.920053 -0.838516 -0.792204
v 3.920053 0.838516 -0.792204
v 3.414065 -0.838516 -0.326188
v 3.414065 0.838516 -0.289013
v 3.414065 -0.838516 -0.792204
v 3.414065 0.838516 -0.792204
v 3.920053 -0.838516 -0.826340
v 3.920053 0.838516 -0.823385
v 3.920053 -0.838516 -1.330698
v 3.920053 0.838516 -1.330698
v 3.414065 -0.838516 -0.793027
v 3.414065 0.838516 -0.841713
v 3.414065 -0.838516 -1.330698
v 3.919513 -0.839866 -1.331215
v 3.919513 -1.369603 0.371285
v 3.919513 -1.377536 -1.331215
v 3.413525 -0.839866 0.357489
v 3.413525 -0.839866 -1.331215
v 3.413525 -1.377536 0.370965
v 3.393758 -1.376805 -1.326879
v 3.920053 -0.838516 0.283863
v 3.919513 -0.839866 -1.645980
v 3.920053 -0.838516 -0.284381
v 3.393758 -1.376805 -1.639427
v 3.919513 -1.377536 -1.639085
v 3.920053 -0.838516 0.796059
v 3.920027 -0.838580 0.370061
v 2.832145 -0.162430 -1.467111
v 3.224865 0.240962 -1.467111
vt 0.625000 0.000000
vt 0.375000 0.000000
vt 0.375000 0.250000
vt 0.625000 0.250000
vt 0.375000 0.500000
vt 0.625000 0.500000
vt 0.375000 0.750000
vt 0.625000 0.750000
vt 0.375000 1.000000
vt 0.125000 0.500000
vt 0.125000 0.750000
vt 0.875000 0.500000
vt 0.375000 0.500000
vt 0.375000 0.750000
vt 0.625000 0.750000
vt 0.625000 0.500000
vt 0.875000 0.500000
vt 0.625000 0.000000
vt 0.375000 0.000000
vt 0.375000 0.250000
vt 0.625000 0.250000
vt 0.375000 0.500000
vt 0.625000 0.500000
vt 0.375000 0.750000
vt 0.625000 0.750000
vt 0.375000 1.000000
vt 0.125000 0.500000
vt 0.125000 0.750000
vt 0.875000 0.500000
vt 0.625000 0.000000
vt 0.375000 0.000000
vt 0.375000 0.236924
vt 0.625000 0.500000
vt 0.625000 0.750000
vt 0.625000 0.000000
vt 0.625000 0.500000
vt 0.375000 0.500000
vt 0.375000 0.750000
vt 0.375000 1.000000
vt 0.625000 1.000000
vt 0.125000 0.500000
vt 0.125000 0.750000
vt 0.625000 0.250000
vt 0.625000 0.250000
vt 0.375000 0.250000
vt 0.375000 0.500000
vt 0.375000 0.750000
vt 0.375000 0.014375
vt 0.375000 0.000000
vt 0.375000 0.250000
vt 0.625000 0.250000
vt 0.375000 0.500000
vt 0.375000 0.750000
vt 0.625000 0.750000
vt 0.375000 1.000000
vt 0.125000 0.500000
vt 0.125000 0.750000
vt 0.875000 0.500000
vt 0.625000 0.500000
vt 0.375000 0.250000
vt 0.375000 0.500000
vt 0.625000 0.500000
vt 0.375000 0.750000
vt 0.625000 0.000000
vt 0.625000 0.250000
vt 0.625000 0.250000
vt 0.625000 0.500000
vt 0.386921 0.000000
vt 0.375000 0.018446
vt 0.625000 0.000000
vt 0.375000 0.239010
vt 0.625000 0.250000
vt 0.375000 0.000000
vt 0.375000 0.250000
vt 0.625000 0.250000
vt 0.375000 0.500000
vt 0.375000 0.750000
vt 0.625000 0.750000
vt 0.375000 1.000000
vt 0.625000 1.000000
vt 0.125000 0.500000
vt 0.125000 0.750000
vt 0.000000 0.000000
vt 0.000000 0.000000
vt 0.000000 0.000000
vt 0.625000 1.000000
vt 0.875000 0.750000
vt 0.875000 0.750000
vt 0.625000 1.000000
vt 0.875000 0.750000
vt 0.625000 0.750000
vt 0.625000 0.000000
vt 0.625000 1.000000
vt 0.875000 0.750000
vt 0.625000 0.750000
vt 0.625000 0.000000
vt 0.625000 0.500000
vn 1.0000 0.0000 0.0000
vn 0.0000 0.0000 -1.0000
vn -1.0000 0.0000 0.0000
vn 0.0000 0.0000 1.0000
vn 0.0000 -1.0000 0.0000
vn 0.0000 1.0000 0.0000
vn -1.0000 -0.0018 0.0000
vn 0.0100 -0.0034 -0.9999
vn 1.0000 0.0013 0.0000
vn 0.0072 -0.0060 1.0000
vn 0.0081 0.0052 1.0000
vn 0.0657 0.0290 0.9974
vn 0.0157 -0.9999 -0.0006
vn -0.9999 0.0003 0.0116
vn -0.0014 -1.0000 0.0000
vn -0.0248 0.0023 0.9997
vn 0.0208 -0.0039 0.9998
vn 0.9076 0.4198 0.0000
vn 0.1058 -0.0916 0.9902
vn -0.8412 -0.5407 0.0000
vn 0.0741 -0.0805 -0.9940
vn -0.7145 0.6996 0.0000
vn 0.0006 -0.0128 -0.9999
vn -1.0000 -0.0000 -0.0057
vn -0.0072 0.0018 -1.0000
vn 1.0000 0.0000 0.0045
vn 0.0006 -0.0040 1.0000
vn -0.0823 -0.0221 0.9964
vn 0.0238 -0.0072 -0.9997
vn -0.0028 0.0008 -1.0000
vn -1.0000 -0.0018 0.0061
vn -0.0362 -0.0018 0.9993
vn -0.0014 -1.0000 0.0047
vn -0.9993 0.0368 -0.0000
vn -0.0010 0.0251 0.9997
vn 0.0074 0.0001 1.0000
vn 1.0000 -0.0010 -0.0003
vn 0.1014 -0.0987 0.9899
vn 0.0773 -0.0753 -0.9942
usemtl None
s off
f 2/1/1 1/2/1 3/3/1
f 4/4/2 3/3/2 7/5/2
f 8/6/3 7/5/3 5/7/3
f 6/8/4 5/7/4 1/9/4
f 7/5/5 3/10/5 1/11/5
f 4/12/6 8/6/6 6/8/6
f 14/13/7 12/14/7 13/15/7
f 14/13/8 15/16/8 11/17/8
f 11/17/6 15/16/6 13/15/6
f 13/18/1 16/19/1 17/20/1
f 18/21/2 17/20/2 21/22/2
f 22/23/3 21/22/3 19/24/3
f 20/25/4 19/24/4 16/26/4
f 21/22/5 17/27/5 16/28/5
f 18/29/6 22/23/6 20/25/6
f 23/30/9 10/31/9 24/32/9
f 36/33/6 34/34/6 30/35/6
f 29/36/3 28/37/3 26/38/3
f 26/38/10 10/39/10 23/40/10
f 24/41/5 10/42/5 26/38/5
f 23/40/6 25/43/6 29/36/6
f 32/44/2 31/45/2 35/46/2
f 36/33/3 35/46/3 33/47/3
f 53/48/11 30/35/11 34/34/11
f 28/37/2 29/36/2 25/43/2
f 37/49/1 39/50/1 40/51/1
f 40/51/2 39/50/2 43/52/2
f 43/52/3 41/53/3 42/54/3
f 42/54/12 41/53/12 37/55/12
f 43/52/5 39/56/5 37/57/5
f 40/58/6 18/59/6 42/54/6
f 45/60/13 49/61/13 50/62/13
f 50/62/14 49/61/14 47/63/14
f 44/64/1 46/65/1 55/66/1
f 46/65/15 50/62/15 54/67/15
f 45/60/16 57/68/16 47/63/16
f 12/14/17 56/69/17 9/70/17
f 14/13/5 51/71/5 56/69/5
f 30/35/1 53/48/1 31/45/1
f 56/69/1 51/71/1 11/72/1
f 45/60/1 46/65/1 44/64/1
f 50/73/18 54/74/18 58/75/18
f 58/75/19 54/74/19 52/76/19
f 52/76/20 44/77/20 59/78/20
f 44/77/21 50/79/21 58/80/21
f 54/81/22 50/82/22 44/77/22
f 52/83/23 55/84/23 54/85/23
f 2/1/1 3/3/1 4/4/1
f 4/4/2 7/5/2 8/6/2
f 8/6/3 5/7/3 6/8/3
f 6/8/4 1/9/4 2/86/4
f 7/5/5 1/11/5 5/7/5
f 4/12/6 6/8/6 2/87/6
f 14/13/24 13/15/24 15/16/24
f 14/13/25 11/17/25 51/71/25
f 11/17/6 13/15/6 9/88/6
f 13/18/1 17/20/1 18/21/1
f 18/21/2 21/22/2 22/23/2
f 22/23/3 19/24/3 20/25/3
f 20/25/4 16/26/4 13/89/4
f 21/22/5 16/28/5 19/24/5
f 18/29/6 20/25/6 13/90/6
f 23/30/26 24/32/26 25/43/26
f 36/33/6 30/35/6 32/44/6
f 29/36/3 26/38/3 27/91/3
f 26/38/27 23/40/27 27/91/27
f 24/41/5 26/38/5 28/37/5
f 23/40/6 29/36/6 27/91/6
f 32/44/2 35/46/2 36/33/2
f 36/33/3 33/47/3 34/34/3
f 53/48/28 34/34/28 33/47/28
f 28/37/29 25/43/29 24/32/29
f 37/49/1 40/51/1 38/92/1
f 40/51/30 43/52/30 18/59/30
f 43/52/31 42/54/31 18/59/31
f 42/54/32 37/55/32 38/93/32
f 43/52/5 37/57/5 41/53/5
f 40/58/6 42/54/6 38/94/6
f 45/60/33 50/62/33 46/65/33
f 50/62/34 47/63/34 48/95/34
f 44/64/1 55/66/1 52/96/1
f 46/65/15 54/67/15 55/66/15
f 45/60/35 47/63/35 49/61/35
f 12/14/36 9/70/36 13/15/36
f 14/13/5 56/69/5 12/14/5
f 30/35/1 31/45/1 32/44/1
f 56/69/1 11/72/1 9/70/1
f 45/60/37 44/64/37 57/68/37
f 58/75/38 52/76/38 59/97/38
f 44/77/39 58/80/39 59/78/39
f 54/81/22 44/77/22 52/76/22
l 53 24
l 48 44
l 10 51
