# Blender v3.1.2 OBJ File: 'bird.blend'
# www.blender.org
mtllib player_bird.mtl
o 立方体
v 1.996676 1.893826 0.510657
v 1.999465 1.749236 0.980128
v 2.000860 1.890765 -0.048202
v 1.999459 1.747956 -0.034981
v 1.999198 1.825403 0.913855
v 3.710146 1.831330 -0.544588
v 2.825490 1.752466 -0.530824
v 2.825490 1.887949 -0.530824
v 3.799314 1.753816 -0.541927
v 3.420068 1.889295 -0.553937
v 2.311858 1.895829 -0.254312
v 2.313360 1.751938 -0.255072
v 3.418570 1.753151 -0.549443
v 0.822856 1.348821 0.343999
v 0.731176 1.207182 0.833294
v 0.862715 1.341312 -0.421838
v 0.933212 1.234317 -0.424624
v 0.712449 1.270756 0.768967
v 1.582564 1.690314 -0.306446
v 1.583058 1.548033 -0.292505
v 0.000000 0.334491 -1.530951
v 0.000000 0.516937 0.778134
v 0.000000 1.588654 -1.765326
v 0.000000 2.079422 0.221884
v 0.000000 1.532328 1.154264
v 0.000000 0.019577 -0.020432
v 0.000000 1.234317 -1.970183
v 0.000000 2.871975 1.698797
v 0.000000 1.814363 1.698797
v 0.000000 2.813855 0.599820
v 0.000000 3.071449 1.128626
v 0.000000 2.343169 2.382716
v 0.000000 2.211848 1.848735
v 0.000000 2.525571 1.829466
v 0.447687 1.490550 -1.648707
v 0.447687 0.432595 -1.414332
v 0.536799 1.658773 0.696025
v 0.609457 0.696749 0.704044
v 0.743010 0.299852 -0.020432
v 0.530282 1.234317 -1.732401
v 0.561405 1.885918 0.343999
v 0.994209 1.234317 -0.226647
v 0.433755 2.718805 0.694871
v 0.433755 2.776924 1.603746
v 0.433755 1.909414 1.603746
v 0.528806 1.814362 1.128626
v 0.528806 2.343169 1.698797
v 0.528806 2.871975 1.128626
v 0.728280 2.343169 1.128627
v 0.228727 2.343169 1.811992
v 0.000000 2.133991 -0.169486
v 0.532248 1.817398 -0.192298
v 0.910089 1.358038 -0.220392
v 0.921548 1.358344 -0.095881
v -1.996677 1.893826 0.510657
v -1.999465 1.749236 0.980128
v -2.000860 1.890765 -0.048202
v -1.999459 1.747956 -0.034981
v -1.999199 1.825403 0.913855
v -3.710146 1.831330 -0.544588
v -2.825490 1.752466 -0.530824
v -2.825490 1.887949 -0.530824
v -3.799314 1.753816 -0.541927
v -3.420068 1.889295 -0.553937
v -2.311858 1.895829 -0.254312
v -2.313360 1.751938 -0.255072
v -3.418570 1.753151 -0.549443
v -0.822856 1.348821 0.343999
v -0.731176 1.207182 0.833294
v -0.862715 1.341312 -0.421838
v -0.933212 1.234317 -0.424624
v -0.712449 1.270756 0.768967
v -1.582564 1.690314 -0.306446
v -1.583059 1.548033 -0.292505
v -0.447687 1.490550 -1.648707
v -0.447687 0.432595 -1.414332
v -0.536799 1.658773 0.696025
v -0.609457 0.696749 0.704044
v -0.743010 0.299852 -0.020432
v -0.530282 1.234317 -1.732401
v -0.561405 1.885918 0.343999
v -0.994209 1.234317 -0.226647
v -0.433755 2.718805 0.694871
v -0.433755 2.776924 1.603746
v -0.433755 1.909414 1.603746
v -0.528806 1.814362 1.128626
v -0.528806 2.343169 1.698797
v -0.528806 2.871975 1.128626
v -0.728280 2.343169 1.128627
v -0.228727 2.343169 1.811992
v -0.532248 1.817398 -0.192298
v -0.910089 1.358038 -0.220392
v -0.921548 1.358344 -0.095881
vt 0.948160 0.323360
vt 0.920193 0.581161
vt 0.905030 0.357886
vt 0.486470 0.433962
vt 0.473150 0.744124
vt 0.473943 0.439631
vt 0.473150 0.695979
vt 0.464244 0.772179
vt 0.284550 0.568802
vt 0.872149 0.527953
vt 0.855728 0.457259
vt 0.216202 0.812932
vt 0.216005 0.764878
vt 0.235264 0.816914
vt 0.250540 0.522584
vt 0.254106 0.562743
vt 0.235833 0.558941
vt 0.841286 0.710879
vt 0.687490 0.779278
vt 0.688001 0.723189
vt 0.225013 0.716886
vt 0.221500 0.637801
vt 0.239760 0.641254
vt 0.849935 0.769756
vt 0.694749 0.790193
vt 0.196911 0.760655
vt 0.205577 0.713439
vt 0.467144 0.543067
vt 0.421982 0.583322
vt 0.854420 0.608093
vt 0.844942 0.634947
vt 0.758485 0.617031
vt 0.856014 0.233442
vt 0.793721 0.016374
vt 0.856014 0.009660
vt 0.681654 0.303747
vt 0.775790 0.336007
vt 0.681032 0.405784
vt 0.003051 0.794343
vt 0.132969 0.709306
vt 0.061935 0.839376
vt 0.137927 0.732138
vt 0.109060 0.786273
vt 0.692640 0.170147
vt 0.698846 0.199946
vt 0.681032 0.195905
vt 0.080290 0.512923
vt 0.196911 0.517618
vt 0.141376 0.684103
vt 0.573369 0.788855
vt 0.571493 0.604240
vt 0.629936 0.796553
vt 0.488252 0.614101
vt 0.567739 0.485314
vt 0.627211 0.941557
vt 0.565197 0.843725
vt 0.627211 0.830562
vt 0.607111 0.798427
vt 0.754106 0.586280
vt 0.827228 0.550696
vt 0.850041 0.608093
vt 0.772708 0.216735
vt 0.694779 0.216612
vt 0.843988 0.285660
vt 0.761897 0.289816
vt 0.196911 0.721681
vt 0.841559 0.651745
vt 0.707834 0.173248
vt 0.278380 0.559895
vt 0.284550 0.512923
vt 0.284550 0.568689
vt 0.922521 0.199692
vt 0.856014 0.242706
vt 0.859975 0.188678
vt 0.246966 0.912932
vt 0.263108 0.906311
vt 0.680963 0.377862
vt 0.488252 0.189935
vt 0.542919 0.197497
vt 0.263108 0.520793
vt 0.276526 0.781330
vt 0.264052 0.777234
vt 0.487397 0.126268
vt 0.451388 0.195086
vt 0.284550 0.246940
vt 0.681032 0.305889
vt 0.873692 0.779453
vt 0.870595 0.714771
vt 0.889844 0.711797
vt 0.906637 0.949753
vt 0.903258 0.990102
vt 0.888287 0.953136
vt 0.576361 0.021990
vt 0.519401 0.000000
vt 0.880347 0.813851
vt 0.873920 0.875756
vt 0.860891 0.817195
vt 0.929346 0.608125
vt 0.915916 0.797032
vt 0.916733 0.608093
vt 0.892207 0.872445
vt 0.854420 0.782712
vt 0.422450 0.237888
vt 0.462445 0.298388
vt 0.681032 0.032810
vt 0.658602 0.141288
vt 0.653070 0.037898
vt 0.239828 0.488815
vt 0.253883 0.260544
vt 0.284550 0.479737
vt 0.120308 0.195662
vt 0.051419 0.205020
vt 0.113558 0.120335
vt 0.687490 0.443176
vt 0.655005 0.476410
vt 0.010541 0.235838
vt 0.098101 0.346780
vt 0.000000 0.347104
vt 0.088865 0.264057
vt 0.108691 0.322497
vt 0.116390 0.337428
vt 0.113019 0.368624
vt 0.211561 0.512923
vt 0.111278 0.501552
vt 0.687490 0.768192
vt 0.677654 0.579808
vt 0.509896 0.964868
vt 0.574761 0.966111
vt 0.489795 0.821737
vt 0.488252 0.858173
vt 0.188036 0.299230
vt 0.163435 0.231377
vt 0.225837 0.214223
vt 0.488252 0.395303
vt 0.461191 0.389181
vt 0.635963 0.038242
vt 0.128846 0.360961
vt 0.063128 0.209656
vt 0.899750 0.608093
vt 0.779159 0.405784
vt 0.948160 0.608093
vt 0.486470 0.753367
vt 0.455888 0.820810
vt 0.445687 0.626477
vt 0.850041 0.411284
vt 0.263108 0.512923
vt 0.854420 0.780145
vt 0.335037 0.433962
vt 0.473150 0.481475
vt 0.758235 0.289816
vt 0.000000 0.682295
vt 0.072332 0.834695
vt 0.499647 0.504539
vt 0.549568 0.796553
vt 0.699188 0.648031
vt 0.769316 0.000000
vt 0.904754 0.150747
vt 0.943819 0.242706
vt 0.678566 0.408994
vt 0.276526 0.512923
vt 0.486152 0.000000
vt 0.488252 0.049268
vt 0.619417 0.202547
vt 0.645904 0.242123
vt 0.915917 1.000000
vt 0.929346 0.799999
vt 0.318485 0.433962
vt 0.597909 0.408994
vt 0.915917 0.614647
vt 0.856014 0.076123
vt 0.926270 0.141981
vt 0.866811 0.150747
vt 0.932627 0.017218
vt 0.932627 0.082035
vt 0.634123 0.796553
vt 0.666811 0.872357
vt 0.627211 0.872357
vt 0.013520 0.839376
vt 0.051477 0.886206
vt 0.035806 0.913441
vt 0.687490 0.875202
vt 0.777525 0.907055
vt 0.702406 0.935633
vt 0.735770 0.978998
vt 0.844103 0.917149
vt 0.801826 0.964466
vt 0.787616 0.793414
vt 0.742966 0.837925
vt 0.687490 0.542105
vt 0.702841 0.608093
vt 0.386600 0.891827
vt 0.297258 0.848193
vt 0.412719 0.820810
vt 0.114941 0.859381
vt 0.123645 0.920370
vt 0.073854 0.919610
vt 0.841927 0.289816
vt 0.841927 0.370667
vt 0.816867 0.299502
vt 0.242233 0.149433
vt 0.282768 0.062747
vt 0.284550 0.138416
vt 0.197249 0.034564
vt 0.228832 0.000000
vt 0.816867 0.289816
vt 0.816867 0.369654
vt 0.779159 0.363483
vt 0.766744 0.465608
vt 0.809106 0.463013
vt 0.789519 0.495026
vt 0.102691 0.068812
vt 0.158742 0.123464
vt 0.113331 0.135586
vt 0.138776 0.044087
vt 0.297258 0.964080
vt 0.412719 0.970801
vt 0.123645 0.966458
vt 0.733205 0.478226
vt 0.704198 0.408994
vt 0.710526 0.790193
vt 0.875285 0.000000
vt 0.000000 0.895981
vt 0.056517 0.842905
vt 0.844103 0.800053
vt 0.729424 0.510435
vt 0.284550 0.903084
vt 0.228610 0.093832
vt 0.067128 0.973445
vt 0.056067 0.942669
vn 0.1267 0.9781 0.1652
vn 0.5390 0.5540 0.6345
vn 0.0011 -1.0000 -0.0015
vn 0.0215 0.9997 0.0115
vn 0.5516 -0.0794 -0.8303
vn 0.0256 -0.0333 -0.9991
vn -0.4340 0.8878 0.1534
vn -0.4741 0.0000 -0.8805
vn -0.3451 0.6154 0.7087
vn -0.0388 -0.0325 -0.9987
vn -0.5524 -0.0014 -0.8336
vn 0.4323 -0.9018 0.0011
vn -0.4398 0.8976 0.0289
vn 0.2799 0.9084 -0.3104
vn 0.2491 -0.3364 0.9082
vn 0.9335 -0.2795 0.2245
vn 0.9244 0.3157 0.2142
vn 0.7959 0.5535 -0.2452
vn 0.9343 -0.2105 -0.2878
vn 0.2586 -0.9457 -0.1972
vn 0.3049 -0.8084 0.5035
vn 0.3793 -0.3747 -0.8460
vn 0.3759 0.3950 -0.8383
vn -0.4593 -0.8331 0.3081
vn 0.7681 0.6362 -0.0723
vn 0.3494 0.9269 -0.1374
vn 0.4534 -0.8803 -0.1397
vn -0.4195 0.9076 -0.0135
vn -0.4387 0.8978 0.0382
vn 0.8227 0.5633 -0.0771
vn 0.7640 0.6187 -0.1832
vn 0.8854 0.4327 0.1699
vn 0.8499 0.4137 0.3264
vn 0.1422 0.1193 -0.9826
vn -0.1267 0.9781 0.1652
vn -0.5390 0.5540 0.6345
vn 0.0002 -1.0000 -0.0022
vn 0.0026 1.0000 -0.0077
vn -0.5516 -0.0794 -0.8303
vn -0.0256 -0.0333 -0.9991
vn 0.4011 0.9138 0.0637
vn 0.4740 -0.0003 -0.8805
vn 0.3451 0.6154 0.7087
vn 0.0314 0.0000 -0.9995
vn 0.5524 -0.0014 -0.8336
vn -0.4323 -0.9018 0.0011
vn 0.4398 0.8976 0.0289
vn -0.2799 0.9084 -0.3104
vn -0.5184 0.4451 0.7301
vn -0.1980 -0.2847 0.9379
vn -0.9412 -0.1916 0.2784
vn -0.9244 0.3157 0.2142
vn -0.7959 0.5535 -0.2452
vn -0.9343 -0.2105 -0.2878
vn -0.3483 -0.9233 -0.1617
vn -0.3004 -0.8121 0.5003
vn -0.3136 -0.4165 -0.8533
vn -0.3759 0.3950 -0.8383
vn -0.7695 0.6269 -0.1219
vn -0.5114 0.8511 0.1187
vn -0.4534 -0.8803 -0.1397
vn 0.4195 0.9076 -0.0135
vn 0.4387 0.8978 0.0382
vn -0.8227 0.5633 -0.0771
vn -0.8059 0.5375 -0.2483
vn -0.8854 0.4327 0.1699
vn -0.8797 0.4282 0.2066
vn -0.2022 -0.0948 -0.9747
vn 0.5184 0.4451 0.7301
vn 0.1843 0.9579 0.2201
vn 0.5113 0.6090 0.6064
vn 0.0018 -1.0000 -0.0009
vn 0.0136 -0.9999 0.0013
vn -0.0002 -1.0000 -0.0022
vn -0.0200 0.9998 -0.0056
vn -0.0026 1.0000 -0.0077
vn 0.5518 -0.0822 -0.8299
vn 0.0198 -0.0116 -0.9997
vn -0.4011 0.9138 0.0637
vn -0.4740 -0.0003 -0.8805
vn -0.0314 0.0000 -0.9995
vn -0.5721 -0.0700 -0.8172
vn 0.3912 -0.9201 0.0175
vn 0.4764 -0.8740 0.0958
vn 0.4920 0.8429 -0.2177
vn 0.1980 -0.2847 0.9379
vn 0.9412 -0.1916 0.2784
vn 0.7863 0.5384 0.3032
vn 0.9459 0.2179 0.2403
vn 0.8088 0.5390 -0.2350
vn 0.9097 -0.3064 -0.2803
vn 0.9313 -0.2867 -0.2246
vn 0.3483 -0.9233 -0.1617
vn 0.3004 -0.8121 0.5003
vn 0.3136 -0.4165 -0.8533
vn 0.3178 0.4746 -0.8208
vn 0.7695 0.6269 -0.1219
vn 0.5114 0.8511 0.1187
vn -0.4280 0.9037 -0.0082
vn -0.4689 0.8790 -0.0862
vn 0.7452 0.6269 -0.2273
vn 0.8059 0.5375 -0.2483
vn 0.8923 0.3715 -0.2567
vn 0.8464 0.4396 0.3006
vn 0.8797 0.4282 0.2066
vn 0.2022 -0.0948 -0.9747
vn -0.1843 0.9579 0.2201
vn -0.5113 0.6090 0.6064
vn -0.0136 -0.9999 0.0013
vn -0.0018 -1.0000 -0.0009
vn -0.0011 -1.0000 -0.0015
vn 0.0200 0.9998 -0.0056
vn -0.0215 0.9997 0.0115
vn -0.5518 -0.0822 -0.8299
vn -0.0198 -0.0116 -0.9997
vn 0.4340 0.8878 0.1534
vn 0.4741 0.0000 -0.8805
vn 0.0388 -0.0325 -0.9987
vn 0.5721 -0.0700 -0.8172
vn -0.4764 -0.8740 0.0958
vn -0.3912 -0.9201 0.0175
vn -0.4920 0.8429 -0.2177
vn -0.2491 -0.3364 0.9082
vn -0.9335 -0.2795 0.2245
vn -0.9459 0.2179 0.2403
vn -0.7863 0.5384 0.3032
vn -0.8088 0.5390 -0.2350
vn -0.9313 -0.2867 -0.2246
vn -0.9097 -0.3064 -0.2803
vn -0.2586 -0.9457 -0.1972
vn -0.3049 -0.8084 0.5035
vn -0.3793 -0.3747 -0.8460
vn -0.3178 0.4746 -0.8208
vn -0.7681 0.6362 -0.0723
vn -0.3494 0.9269 -0.1374
vn 0.4689 0.8790 -0.0862
vn 0.4280 0.9037 -0.0082
vn -0.7452 0.6269 -0.2273
vn -0.7640 0.6187 -0.1832
vn -0.8923 0.3715 -0.2567
vn -0.8464 0.4396 0.3006
vn -0.8499 0.4137 0.3264
vn -0.1422 0.1193 -0.9826
vn 0.2812 0.8627 -0.4203
vn 0.3418 0.9060 0.2496
vn 0.6157 0.7484 0.2467
vn 0.3108 -0.2879 0.9058
vn 0.9091 -0.2689 0.3181
vn 0.9091 0.2689 0.3181
vn 0.8886 0.3352 -0.3131
vn 0.9261 -0.3493 0.1427
vn 0.4640 -0.8462 0.2621
vn 0.3263 0.4090 -0.8522
vn 0.2717 0.3397 0.9004
vn 0.5119 -0.8342 0.2051
vn -0.2812 0.8627 -0.4203
vn -0.2689 0.9091 0.3181
vn -0.6157 0.7484 0.2467
vn -0.3397 -0.2717 0.9004
vn -0.9060 -0.3418 0.2496
vn -0.9091 0.2689 0.3181
vn -0.8895 0.2863 -0.3560
vn -0.9261 -0.3493 0.1427
vn -0.4640 -0.8462 0.2621
vn -0.3263 0.4090 -0.8522
vn -0.2717 0.3397 0.9004
vn -0.5119 -0.8342 0.2051
vn 0.4593 -0.8331 0.3081
vn 0.3268 0.8664 -0.3776
vn 0.2689 0.9091 0.3181
vn 0.2717 -0.3397 0.9004
vn 0.3397 -0.2717 0.9004
vn 0.9060 -0.3418 0.2496
vn 0.9060 0.3418 0.2496
vn 0.8895 0.2863 -0.3560
vn 0.9717 -0.2236 -0.0764
vn 0.2833 -0.8516 0.4411
vn 0.2831 0.4389 -0.8528
vn 0.3026 0.2925 0.9071
vn 0.3397 0.2717 0.9004
vn -0.3268 0.8664 -0.3776
vn -0.3418 0.9060 0.2496
vn -0.2717 -0.3397 0.9004
vn -0.3108 -0.2879 0.9058
vn -0.9091 -0.2689 0.3181
vn -0.9060 0.3418 0.2496
vn -0.8886 0.3352 -0.3131
vn -0.9717 -0.2236 -0.0764
vn -0.2833 -0.8516 0.4411
vn -0.2831 0.4389 -0.8528
vn -0.3397 0.2717 0.9004
vn -0.3026 0.2925 0.9071
usemtl Material.001
s off
f 5/1/1 10/2/1 1/3/1
f 2/4/2 6/5/2 5/6/2
f 7/7/3 13/8/3 2/9/3
f 1/3/4 8/10/4 11/11/4
f 19/12/5 4/13/5 20/14/5
f 6/15/6 13/16/6 10/17/6
f 14/18/7 5/19/7 1/20/7
f 12/21/8 8/22/8 7/23/8
f 18/24/9 2/25/9 5/19/9
f 13/16/10 8/22/10 10/17/10
f 12/21/11 3/26/11 11/27/11
f 20/28/12 4/29/12 2/9/12
f 16/30/13 53/31/13 19/32/13
f 51/33/14 35/34/14 23/35/14
f 22/36/15 15/37/15 25/38/15
f 38/39/16 42/40/16 15/41/16
f 42/40/17 54/42/17 14/43/17
f 17/44/18 53/45/18 42/46/18
f 36/47/19 40/48/19 17/49/19
f 36/50/20 26/51/20 21/52/20
f 39/53/21 22/54/21 26/51/21
f 36/55/22 27/56/22 40/57/22
f 27/56/23 35/58/23 40/57/23
f 25/59/24 86/60/24 77/61/24
f 52/62/25 54/63/25 53/45/25
f 52/62/26 24/64/26 41/65/26
f 20/66/27 42/40/27 17/49/27
f 1/20/28 19/32/28 14/18/28
f 54/67/29 19/32/29 53/31/29
f 53/45/30 54/63/30 42/46/30
f 35/34/31 52/62/31 16/68/31
f 18/69/32 37/70/32 15/71/32
f 14/72/33 41/73/33 37/74/33
f 16/75/34 20/14/34 17/76/34
f 64/77/35 59/78/35 55/79/35
f 60/80/36 56/81/36 59/82/36
f 61/83/37 66/84/37 56/85/37
f 62/86/38 64/77/38 55/79/38
f 58/87/39 73/88/39 74/89/39
f 67/90/40 60/91/40 64/92/40
f 68/93/41 59/78/41 72/94/41
f 66/95/42 62/96/42 65/97/42
f 72/98/43 56/99/43 69/100/43
f 67/90/44 62/96/44 61/101/44
f 57/102/45 66/95/45 65/97/45
f 56/85/46 58/103/46 74/104/46
f 70/105/47 73/106/47 92/107/47
f 75/108/48 51/109/48 23/110/48
f 77/111/49 69/112/49 25/113/49
f 22/54/50 69/114/50 78/115/50
f 78/116/51 82/117/51 79/118/51
f 68/119/52 93/120/52 82/117/52
f 92/121/53 71/122/53 82/117/53
f 71/122/54 80/123/54 76/124/54
f 76/125/55 26/51/55 79/126/55
f 79/126/56 22/54/56 78/115/56
f 76/127/57 27/56/57 21/128/57
f 75/129/58 27/56/58 80/130/58
f 91/131/59 93/120/59 81/132/59
f 91/131/60 24/133/60 51/109/60
f 74/104/61 71/134/61 82/135/61
f 68/93/62 73/106/62 55/79/62
f 93/136/63 92/107/63 73/106/63
f 92/121/64 82/117/64 93/120/64
f 80/123/65 71/122/65 70/137/65
f 72/138/66 69/112/66 77/111/66
f 81/132/67 93/120/67 68/119/67
f 70/139/68 74/89/68 73/88/68
f 37/140/69 25/38/69 15/37/69
f 5/1/70 6/141/70 10/2/70
f 2/4/71 9/142/71 6/5/71
f 9/143/72 2/9/72 13/8/72
f 2/9/73 4/29/73 12/144/73
f 7/7/74 2/9/74 12/144/74
f 11/11/75 3/145/75 1/3/75
f 1/3/76 10/2/76 8/10/76
f 19/12/77 3/26/77 4/13/77
f 6/15/78 9/146/78 13/16/78
f 14/18/79 18/24/79 5/19/79
f 12/21/80 11/27/80 8/22/80
f 18/24/9 15/147/9 2/25/9
f 13/16/81 7/23/81 8/22/81
f 12/21/82 4/13/82 3/26/82
f 2/9/83 15/148/83 20/28/83
f 15/148/84 42/149/84 20/28/84
f 51/33/85 52/62/85 35/34/85
f 22/36/86 38/150/86 15/37/86
f 38/39/87 39/151/87 42/40/87
f 18/152/88 15/41/88 14/43/88
f 15/41/89 42/40/89 14/43/89
f 17/44/90 16/68/90 53/45/90
f 42/40/91 39/151/91 17/49/91
f 39/151/92 36/47/92 17/49/92
f 36/50/93 39/53/93 26/51/93
f 39/53/94 38/153/94 22/54/94
f 36/55/95 21/128/95 27/56/95
f 27/56/96 23/154/96 35/58/96
f 52/62/97 41/65/97 54/63/97
f 52/62/98 51/33/98 24/64/98
f 3/155/99 19/32/99 1/20/99
f 19/32/100 54/67/100 14/18/100
f 52/62/101 53/45/101 16/68/101
f 16/68/102 17/44/102 40/156/102
f 40/156/103 35/34/103 16/68/103
f 37/74/104 18/157/104 14/72/104
f 14/72/105 54/158/105 41/73/105
f 16/75/106 19/12/106 20/14/106
f 64/77/107 60/159/107 59/78/107
f 60/80/108 63/160/108 56/81/108
f 58/103/109 56/85/109 66/84/109
f 56/85/110 63/161/110 67/162/110
f 61/83/111 56/85/111 67/162/111
f 55/79/112 57/163/112 65/164/112
f 65/164/113 62/86/113 55/79/113
f 58/87/114 57/102/114 73/88/114
f 67/90/115 63/165/115 60/91/115
f 68/93/116 55/79/116 59/78/116
f 66/95/117 61/101/117 62/96/117
f 72/98/43 59/166/43 56/99/43
f 67/90/118 64/92/118 62/96/118
f 57/102/119 58/87/119 66/95/119
f 82/135/120 69/167/120 74/104/120
f 69/167/121 56/85/121 74/104/121
f 75/108/122 91/131/122 51/109/122
f 22/54/123 25/168/123 69/114/123
f 78/116/124 69/112/124 82/117/124
f 82/117/125 69/112/125 68/119/125
f 69/112/126 72/138/126 68/119/126
f 92/121/127 70/137/127 71/122/127
f 76/124/128 79/118/128 71/122/128
f 79/118/129 82/117/129 71/122/129
f 76/125/130 21/52/130 26/51/130
f 79/126/131 26/51/131 22/54/131
f 76/127/132 80/130/132 27/56/132
f 75/129/133 23/154/133 27/56/133
f 91/131/134 92/121/134 93/120/134
f 91/131/135 81/132/135 24/133/135
f 93/136/136 73/106/136 68/93/136
f 73/106/137 57/163/137 55/79/137
f 70/137/138 92/121/138 91/131/138
f 91/131/139 75/108/139 70/137/139
f 75/108/140 80/123/140 70/137/140
f 68/119/141 72/138/141 77/111/141
f 77/111/142 81/132/142 68/119/142
f 70/139/143 71/169/143 74/89/143
usemtl Material
f 31/170/144 43/171/144 30/172/144
f 31/170/145 44/173/145 48/174/145
f 32/175/146 50/176/146 34/177/146
f 45/178/147 50/179/147 33/180/147
f 45/181/148 49/182/148 47/183/148
f 49/182/149 44/184/149 47/183/149
f 49/182/150 43/185/150 48/186/150
f 37/187/151 49/182/151 46/188/151
f 45/189/152 25/59/152 46/190/152
f 24/191/153 43/192/153 41/193/153
f 44/194/154 28/195/154 34/196/154
f 50/197/155 32/198/155 33/199/155
f 83/200/156 31/201/156 30/202/156
f 31/201/157 84/203/157 28/204/157
f 32/205/158 34/206/158 90/207/158
f 90/208/159 87/209/159 85/210/159
f 85/211/160 89/212/160 86/213/160
f 84/203/161 89/212/161 87/214/161
f 89/212/162 83/200/162 81/132/162
f 89/212/163 77/111/163 86/213/163
f 25/59/164 85/210/164 86/60/164
f 83/215/165 24/191/165 81/216/165
f 34/196/166 28/195/166 84/217/166
f 90/208/167 33/218/167 32/219/167
f 46/188/168 25/220/168 37/187/168
f 31/170/169 48/174/169 43/171/169
f 31/170/170 28/221/170 44/173/170
f 33/180/171 29/222/171 45/178/171
f 45/178/172 47/223/172 50/179/172
f 45/181/173 46/188/173 49/182/173
f 49/182/174 48/186/174 44/184/174
f 49/182/175 41/224/175 43/185/175
f 37/187/176 41/224/176 49/182/176
f 45/189/177 29/225/177 25/59/177
f 24/191/178 30/226/178 43/192/178
f 34/196/179 50/179/179 44/194/179
f 50/179/180 47/223/180 44/194/180
f 83/200/181 88/227/181 31/201/181
f 31/201/182 88/227/182 84/203/182
f 85/210/183 29/225/183 33/218/183
f 33/218/184 90/208/184 85/210/184
f 85/211/185 87/214/185 89/212/185
f 84/203/186 88/227/186 89/212/186
f 89/212/187 88/227/187 83/200/187
f 89/212/188 81/132/188 77/111/188
f 25/59/189 29/225/189 85/210/189
f 83/215/190 30/226/190 24/191/190
f 87/228/191 90/229/191 84/217/191
f 90/229/192 34/196/192 84/217/192
