# Blender 4.0.2
# www.blender.org
mtllib NewArm.mtl
o Arm
v -2.832151 3.515035 2.709595
v -3.714284 3.450247 2.178437
v -3.189474 3.611830 1.126515
v -2.026861 3.611830 1.300578
v -1.833138 3.450247 2.460077
v -2.361842 3.515035 2.644203
v -2.899958 3.450247 2.733991
v -3.258574 3.515035 2.503933
v -2.877930 4.269512 2.616147
v -2.832151 4.133101 2.709595
v -3.714284 4.133101 2.178437
v -3.189474 4.133101 1.126515
v -2.026861 4.133101 1.300578
v -1.833138 4.133101 2.460077
v -2.361842 4.133101 2.644203
v -3.258574 4.133101 2.503933
v -3.220199 4.271285 2.410363
v -2.814288 4.271794 2.592520
v -3.648262 4.269511 2.104669
v -1.875517 4.269512 2.368553
v -2.374704 4.269110 2.537408
v -3.328580 3.450247 2.497601
v -3.283800 4.271285 2.402459
v -3.328580 4.133101 2.497601
v -3.204535 4.271285 2.481539
v -3.242949 3.450247 2.581795
v -3.242949 4.133101 2.581795
v -2.399346 3.450247 2.706360
v -2.408920 4.269110 2.597859
v -2.399346 4.133101 2.706360
v -2.307516 4.269110 2.545451
v -2.292070 3.450247 2.650551
v -2.292070 4.133101 2.650551
v -2.899958 4.133101 2.733991
v -2.773409 3.450247 2.752232
v -2.773409 4.133101 2.752232
v -2.759218 4.269512 2.634645
v -2.715634 4.545120 1.935825
v -2.727464 4.530779 2.014838
v -2.762789 4.454221 2.250784
v -2.791137 4.367754 2.440123
v -2.950367 4.522174 2.018718
v -3.206742 4.454221 2.050330
v -3.443019 4.367754 2.079463
v -2.850790 4.548210 1.677850
v -2.976069 4.547206 1.475843
v -3.091527 4.515411 1.289673
v -3.145468 4.440130 1.166179
v -2.515232 4.545710 1.727771
v -2.336284 4.544706 1.571313
v -2.171365 4.512911 1.427119
v -2.087305 4.437868 1.324317
v -2.518496 4.522175 2.080325
v -2.282621 4.454221 2.185635
v -2.065237 4.367754 2.282689
v -2.839667 4.367754 2.453932
v -2.795558 4.454221 2.261277
v -2.747696 4.522175 2.052235
v -2.718791 4.522175 2.056103
v -2.733698 4.454221 2.269758
v -2.747436 4.367754 2.466663
v -2.988467 4.458572 2.189316
v -2.632303 4.522175 2.066562
v -2.535711 4.454221 2.250739
v -2.450042 4.367754 2.404698
v -3.115036 4.372105 2.311801
v -2.833827 4.522175 2.037991
v -3.108943 4.372105 2.368834
v -2.996447 4.458572 2.234372
v -2.541920 4.454221 2.299396
v -2.471115 4.367754 2.459776
v -3.026245 4.458572 2.195730
v -2.497907 4.454221 2.271427
v -2.396196 4.367754 2.418455
v -3.164508 4.372105 2.308266
v -1.762775 3.450247 2.262576
v -1.762775 4.133101 2.262576
v -1.978755 4.394466 2.141118
v -2.186484 4.470872 2.088458
v -2.411884 4.526505 2.031319
v -1.808479 4.300493 2.192263
v -3.732747 3.450247 1.962129
v -3.732747 4.133101 1.962129
v -3.256607 4.464148 1.884993
v -3.014227 4.524954 1.878322
v -3.479985 4.383518 1.891140
v -3.669075 4.287726 1.900470
v -2.608232 3.601843 1.213537
v -3.216321 3.450247 2.524312
v -2.889930 3.450247 2.681729
v -2.767852 3.450247 2.700655
v -2.407057 3.450247 2.650490
v -2.525256 3.611830 1.590677
v -2.775431 3.611830 1.573946
v -2.656949 3.611830 1.667418
v -2.797222 3.611830 1.550422
v -2.677954 3.676618 1.679370
v -2.541632 3.711464 1.600250
v -2.694229 3.611830 1.661750
v -2.553150 3.611830 1.606978
v -2.784802 3.676618 1.563884
vn -0.5136 0.5903 0.6227
vn -0.4680 0.6044 0.6447
vn 0.7096 -0.6914 0.1362
vn -0.0830 0.6070 0.7903
vn -0.9036 0.3841 0.1897
vn -0.9805 -0.0000 0.1968
vn -0.0906 -0.0000 0.9959
vn -0.5874 -0.0000 0.8093
vn 0.9420 -0.0000 0.3356
vn 0.1481 -0.0000 -0.9890
vn -0.8384 -0.0000 -0.5451
vn -0.6375 -0.0000 0.7704
vn -0.0901 -0.0000 0.9959
vn -0.0864 0.5794 0.8105
vn -0.4056 -0.0000 0.9141
vn -0.3035 0.6327 0.7125
vn 0.8562 -0.0000 0.5166
vn 0.7809 0.4260 0.4568
vn 0.3833 -0.0000 0.9236
vn 0.3050 0.5991 0.7403
vn 0.2643 0.6039 0.7520
vn 0.3385 -0.0000 0.9410
vn 0.1217 -0.0000 0.9926
vn 0.0879 0.6353 0.7673
vn -0.2885 0.8977 0.3330
vn -0.3551 0.8332 0.4239
vn -0.0348 0.9830 0.1805
vn -0.1639 0.9486 0.2706
vn -0.1847 0.9821 0.0368
vn -0.3126 0.9499 -0.0049
vn -0.5123 0.8417 -0.1707
vn -0.0775 0.9956 0.0534
vn 0.0061 0.9999 0.0088
vn 0.0058 1.0000 -0.0047
vn 0.0307 0.9824 -0.1845
vn 0.0832 0.8351 -0.5437
vn 0.2292 0.9117 0.3409
vn 0.3455 0.8798 0.3265
vn 0.0401 0.9970 0.0669
vn 0.1367 0.9361 0.3240
vn -0.0253 0.9776 0.2091
vn -0.2259 0.9345 0.2751
vn -0.2349 0.8964 0.3758
vn -0.3067 0.8284 0.4687
vn 0.1471 0.9324 0.3303
vn 0.1638 0.8248 0.5411
vn 0.1283 0.8941 0.4291
vn 0.0379 0.8432 0.5362
vn -0.0213 0.8986 0.4383
vn -0.0429 0.9537 0.2976
vn -0.2439 0.8613 0.4457
vn -0.2200 0.7804 0.5853
vn -0.1164 0.7541 0.6464
vn -0.4441 0.8925 -0.0786
vn -0.6447 0.7565 0.1094
vn -0.5938 0.8045 -0.0110
vn -0.0865 0.8973 0.4329
vn -0.1820 0.8364 0.5170
vn -0.0342 0.9778 0.2065
vn -0.0279 0.9550 0.2954
vn 0.4915 0.8686 0.0627
vn 0.5791 0.8009 0.1523
vn 0.5714 0.7737 0.2735
vn -0.0170 0.9829 0.1833
vn 0.2065 0.8380 0.5050
vn 0.1680 0.8946 0.4142
vn 0.0716 0.9422 0.3273
vn 0.0767 0.8887 0.4520
vn -0.0690 0.7284 0.6817
vn 0.0200 0.7944 0.6071
vn -0.8230 0.1661 -0.5432
vn 0.1472 0.1059 -0.9834
vn 0.9456 0.1863 -0.2666
vn 0.8374 0.4255 0.3431
vn 0.1539 0.9860 0.0643
vn 0.5492 0.8352 -0.0286
vn 0.2934 0.9536 0.0673
vn 0.9643 -0.0000 -0.2647
vn -0.8900 0.4443 0.1024
vn -0.4272 0.8932 0.1402
vn -0.3278 0.9330 0.1483
vn -0.2386 0.9625 0.1288
vn -0.9964 -0.0000 0.0850
vn 0.7763 -0.5428 0.3205
vn 0.0137 -0.9996 0.0235
vn 0.8098 -0.5760 -0.1118
vn 0.9210 -0.3337 -0.2010
vn -0.0199 -0.9996 0.0184
vn -0.7350 -0.5864 -0.3405
vn -0.7868 -0.4198 -0.4525
vn -0.9519 -0.2910 -0.0958
vn -0.0000 -1.0000 -0.0000
vn 0.8563 -0.5123 0.0654
vn -0.7130 -0.6970 -0.0768
vn -0.8811 -0.4635 0.0941
vn 0.8388 -0.2602 0.4783
vn -0.8922 -0.1925 -0.4086
vn 0.0816 -0.9874 -0.1356
vn -0.0843 -0.9882 -0.1277
vn -0.8340 -0.5187 -0.1884
vn -0.0364 -0.9875 -0.1531
vn 0.1176 -0.9883 -0.0976
vn -0.9600 -0.1785 0.2159
vn 0.9833 -0.1228 -0.1345
vn 0.9396 -0.2868 0.1867
vt 0.890154 0.750000
vt 0.890154 1.000000
vt 0.800000 1.000000
vt 0.800000 0.750000
vt 0.013544 0.750000
vt 0.013544 1.000000
vt 0.000000 1.000000
vt 0.000000 0.750000
vt 0.750000 0.490000
vt 0.765227 0.478937
vt 0.765464 0.478765
vt 0.110485 0.750000
vt 0.110485 1.000000
vt 0.100000 1.000000
vt 0.100000 0.750000
vt 0.910585 0.750000
vt 0.910585 1.000000
vt 0.900000 1.000000
vt 0.900000 0.750000
vt 0.910585 0.500000
vt 0.900000 0.500000
vt 0.110485 0.500000
vt 0.100000 0.500000
vt 0.013544 0.500000
vt 0.000000 0.500000
vt 0.236804 0.500000
vt 0.236804 0.750000
vt 0.200000 0.750000
vt 0.200000 0.500000
vt 0.600000 0.500000
vt 0.600000 0.750000
vt 0.400000 0.750000
vt 0.400000 0.500000
vt 0.500011 0.500000
vt 0.778648 0.500000
vt 0.778648 0.750000
vt 0.890154 0.500000
vt 0.800000 0.500000
vt 0.986658 0.500000
vt 0.986658 0.750000
vt 0.986658 1.000000
vt 0.089912 0.750000
vt 0.089912 0.500000
vt 0.089912 1.000000
vt 0.200000 1.000000
vt 1.000000 0.750000
vt 1.000000 1.000000
vt 1.000000 0.500000
vt 0.495295 0.812500
vt 0.495295 0.875000
vt 0.400000 0.875000
vt 0.400000 0.812500
vt 0.495295 0.750000
vt 0.400000 0.750000
vt 0.525000 0.984375
vt 0.500000 1.000000
vt 0.400000 0.937500
vt 0.495295 0.937500
vt 0.378648 0.875000
vt 0.378648 0.937500
vt 0.200000 0.937500
vt 0.200000 0.875000
vt 0.378648 0.812500
vt 0.200000 0.812500
vt 0.378648 0.750000
vt 0.200000 0.750000
vt 0.300000 1.000000
vt 0.100000 1.000000
vt 0.000000 0.937500
vt 0.000000 0.875000
vt 0.000000 0.812500
vt 0.000000 0.750000
vt 0.836804 0.812500
vt 0.836804 0.875000
vt 0.800000 0.875000
vt 0.800000 0.812500
vt 0.836804 0.750000
vt 0.800000 0.750000
vt 1.000000 0.937500
vt 0.800000 0.937500
vt 0.836804 0.937500
vt 0.681835 0.937542
vt 0.600000 0.937500
vt 0.613576 0.937500
vt 0.613576 0.875000
vt 0.600000 0.875000
vt 0.613576 0.812500
vt 0.600000 0.812500
vt 0.613576 0.750000
vt 0.600000 0.750000
vt 0.586836 0.937500
vt 0.586836 0.875000
vt 0.586836 0.812500
vt 0.586836 0.750000
vt 0.681768 0.750000
vt 0.681768 0.812500
vt 0.681768 0.875000
vt 0.706698 0.875000
vt 0.693758 0.937500
vt 0.693759 0.875000
vt 0.706698 0.812500
vt 0.693758 0.812500
vt 0.706698 0.750000
vt 0.693758 0.750000
vt 0.520346 0.875000
vt 0.506663 0.937500
vt 0.506663 0.875000
vt 0.520346 0.750000
vt 0.520347 0.812500
vt 0.506663 0.812500
vt 0.506663 0.750000
vt 0.575000 0.953125
vt 0.520346 0.937500
vt 0.700000 1.000000
vt 0.675000 0.984375
vt 0.706698 0.937500
vt 1.000000 0.750000
vt 1.000000 0.875000
vt 1.000000 0.812500
vt 0.864127 0.407082
vt 0.875363 0.398918
vt 0.782902 0.145847
vt 0.780997 0.151200
vt 0.750016 0.055836
vt 0.608932 0.055836
vt 0.716919 0.145738
vt 0.635873 0.407082
vt 0.647386 0.415447
vt 0.646845 0.415054
vt 0.721767 0.154191
vt 0.719163 0.150779
vt 0.754732 0.184949
vt 0.778282 0.154673
vt 0.852818 0.415298
vt 0.852046 0.415859
vt 0.891068 0.055836
vt 0.745249 0.184887
vt 0.750011 0.191023
vt 0.734397 0.478664
vt 0.734542 0.478769
vt 0.623907 0.398388
vt 0.537790 0.274786
vt 0.521746 0.324164
vt 0.978254 0.324164
vt 0.968946 0.295518
s 0
f 24/1/1 23/2/1 19/3/1 11/4/1
f 36/5/2 37/6/2 18/7/2 10/8/2
f 1/9/3 7/10/3 90/11/3
f 33/12/4 31/13/4 21/14/4 15/15/4
f 27/16/5 25/17/5 17/18/5 16/19/5
f 26/20/6 27/16/6 16/19/6 8/21/6
f 32/22/7 33/12/7 15/15/7 6/23/7
f 35/24/8 36/5/8 10/8/8 1/25/8
f 76/26/9 77/27/9 14/28/9 5/29/9
f 3/30/10 12/31/10 13/32/10 4/33/10 88/34/10
f 82/35/11 83/36/11 12/31/11 3/30/11
f 22/37/12 24/1/12 11/4/12 2/38/12
f 8/21/13 16/19/13 24/1/13 22/37/13
f 16/19/14 17/18/14 23/2/14 24/1/14
f 7/39/15 34/40/15 27/16/15 26/20/15
f 34/40/16 9/41/16 25/17/16 27/16/16
f 6/23/17 15/15/17 30/42/17 28/43/17
f 15/15/18 21/14/18 29/44/18 30/42/18
f 5/29/19 14/28/19 33/12/19 32/22/19
f 14/28/20 20/45/20 31/13/20 33/12/20
f 10/46/21 18/47/21 9/41/21 34/40/21
f 1/48/22 10/46/22 34/40/22 7/39/22
f 28/43/23 30/42/23 36/5/23 35/24/23
f 30/42/24 29/44/24 37/6/24 36/5/24
f 75/49/25 72/50/25 43/51/25 44/52/25
f 23/53/26 75/49/26 44/52/26 19/54/26
f 39/55/27 38/56/27 42/57/27 67/58/27
f 72/50/28 67/58/28 42/57/28 43/51/28
f 84/59/29 85/60/29 45/61/29 46/62/29
f 86/63/30 84/59/30 46/62/30 47/64/30
f 87/65/31 86/63/31 47/64/31 48/66/31
f 42/57/32 38/67/32 45/61/32 85/60/32
f 45/61/33 38/68/33 49/69/33
f 46/62/34 45/61/34 49/69/34 50/70/34
f 47/64/35 46/62/35 50/70/35 51/71/35
f 48/66/36 47/64/36 51/71/36 52/72/36
f 78/73/37 79/74/37 54/75/37 55/76/37
f 81/77/38 78/73/38 55/76/38 20/78/38
f 49/79/39 38/18/39 53/80/39 80/81/39
f 79/74/40 80/81/40 53/80/40 54/75/40
f 63/82/41 39/83/41 59/84/41
f 60/85/42 59/84/42 39/83/42 40/86/42
f 61/87/43 60/85/43 40/86/43 41/88/43
f 37/89/44 61/87/44 41/88/44 18/90/44
f 40/86/45 39/83/45 58/91/45 57/92/45
f 18/90/46 41/88/46 56/93/46 9/94/46
f 41/88/47 40/86/47 57/92/47 56/93/47
f 29/95/48 71/96/48 61/87/48 37/89/48
f 71/96/49 70/97/49 60/85/49 61/87/49
f 70/97/50 63/82/50 59/84/50 60/85/50
f 73/98/51 63/99/51 64/100/51
f 74/101/52 73/98/52 64/100/52 65/102/52
f 31/103/53 74/101/53 65/102/53 21/104/53
f 69/105/54 67/106/54 62/107/54
f 25/108/55 68/109/55 66/110/55 17/111/55
f 68/109/56 69/105/56 62/107/56 66/110/56
f 56/93/57 57/92/57 69/105/57 68/109/57
f 9/94/58 56/93/58 68/109/58 25/108/58
f 39/112/59 67/113/59 58/91/59
f 57/92/60 58/91/60 67/113/60 69/105/60
f 64/100/61 63/82/61 70/97/61
f 65/102/62 64/100/62 70/97/62 71/96/62
f 21/104/63 65/102/63 71/96/63 29/95/63
f 53/80/64 38/114/64 39/115/64 63/116/64
f 20/78/65 55/76/65 74/101/65 31/103/65
f 55/76/66 54/75/66 73/98/66 74/101/66
f 54/75/67 53/80/67 63/116/67 73/98/67
f 62/107/68 67/58/68 72/50/68
f 17/111/69 66/110/69 75/49/69 23/53/69
f 66/110/70 62/107/70 72/50/70 75/49/70
f 87/65/71 48/66/71 12/31/71 83/36/71
f 12/31/72 48/66/72 52/72/72 13/32/72
f 81/77/73 77/27/73 13/32/73 52/117/73
f 20/78/74 14/28/74 77/27/74 81/77/74
f 50/118/75 49/79/75 80/81/75 79/74/75
f 52/117/76 51/119/76 78/73/76 81/77/76
f 51/119/77 50/118/77 79/74/77 78/73/77
f 4/33/78 13/32/78 77/27/78 76/26/78
f 19/54/79 87/65/79 83/36/79 11/4/79
f 19/54/80 44/52/80 86/63/80 87/65/80
f 44/52/81 43/51/81 84/59/81 86/63/81
f 43/51/82 42/57/82 85/60/82 84/59/82
f 2/38/83 11/4/83 83/36/83 82/35/83
f 8/120/84 22/121/84 96/122/84 101/123/84
f 88/124/85 4/125/85 93/126/85
f 6/127/86 28/128/86 92/129/86
f 6/127/87 92/129/87 100/130/87 98/131/87
f 88/124/88 99/132/88 94/133/88
f 89/134/89 26/135/89 8/120/89
f 88/124/88 96/122/88 3/136/88
f 89/134/90 8/120/90 101/123/90 94/133/90
f 88/124/91 95/137/91 97/138/91
f 90/11/92 7/10/92 26/135/92 89/134/92
f 90/11/93 99/132/93 97/138/93 1/9/93
f 91/139/94 35/140/94 1/9/94
f 88/124/85 100/130/85 95/137/85
f 32/141/95 6/127/95 98/131/95 93/126/95
f 92/129/92 28/128/92 35/140/92 91/139/92
f 101/123/96 96/122/96 88/124/96
f 94/133/97 101/123/97 88/124/97
f 94/133/98 99/132/98 90/11/98 89/134/98
f 93/126/99 4/125/99 76/142/99 5/143/99 32/141/99
f 97/138/100 95/137/100 91/139/100 1/9/100
f 95/137/101 100/130/101 92/129/101 91/139/101
f 3/136/102 96/122/102 22/121/102 2/144/102 82/145/102
f 93/126/103 98/131/103 88/124/103
f 98/131/104 100/130/104 88/124/104
f 97/138/105 99/132/105 88/124/105
