# Blender v3.1.2 OBJ File: ''
# www.blender.org
mtllib hexagonBolt.mtl
o 円_円.003
v -0.002079 0.617170 -0.546028
v 0.465041 0.253852 -0.277184
v -0.002590 0.253852 -0.547171
v 0.465552 0.617169 0.263933
v -0.002590 0.253851 0.532777
v 0.465041 0.253851 0.262790
v -0.470221 0.253851 0.262790
v -0.469710 0.617169 -0.276041
v -0.470221 0.253852 -0.277184
v 0.465552 0.617169 -0.276041
v -0.469710 0.617169 0.263933
v 0.138004 0.255445 0.048727
v 0.105016 -0.605531 0.098082
v 0.138004 -0.605531 0.048712
v -0.143184 0.255445 -0.067745
v -0.154767 -0.605531 -0.009523
v -0.154767 0.255445 -0.009509
v 0.149587 0.255445 -0.009509
v 0.149588 -0.605531 -0.009523
v -0.143183 -0.605531 0.048712
v -0.143184 0.255445 0.048727
v 0.138004 0.255445 -0.067745
v 0.138004 -0.605531 -0.067759
v -0.110195 -0.605531 0.098082
v -0.110196 0.255445 0.098097
v 0.105016 0.255445 -0.117115
v 0.105016 -0.605531 -0.117129
v -0.060825 -0.605531 0.131070
v -0.060826 0.255445 0.131085
v 0.055646 0.255445 -0.150103
v 0.055646 -0.605531 -0.150117
v -0.002589 -0.605531 0.142654
v -0.002590 0.255445 0.142668
v -0.002590 0.255445 -0.161686
v -0.060825 -0.605531 -0.150117
v -0.060826 0.255445 -0.150103
v -0.002589 -0.605531 -0.161701
v 0.055646 0.255445 0.131085
v 0.055646 -0.605531 0.131070
v -0.110195 -0.605531 -0.117129
v -0.110196 0.255445 -0.117115
v 0.105016 0.255445 0.098097
v -0.143183 -0.605531 -0.067759
v -0.002079 0.617169 0.533920
vt 0.142310 0.699633
vt 0.000090 0.951274
vt 0.000000 0.699271
vt 0.142490 0.951635
vt 0.284709 0.771230
vt 0.284799 0.951274
vt 0.284799 0.519745
vt 0.427109 0.776101
vt 0.284799 0.776618
vt 0.427109 0.776101
vt 0.569418 0.519745
vt 0.569418 0.776618
vt 0.142490 0.519589
vt 0.284799 0.519228
vt 0.000090 0.519228
vt 0.449665 0.389421
vt 0.449665 0.129807
vt 0.899329 0.129807
vt 0.930800 0.519228
vt 0.956584 0.856472
vt 0.930800 0.856467
vt 0.830475 0.519242
vt 0.801965 0.856481
vt 0.801965 0.519242
vt 0.902289 0.519228
vt 0.902289 0.856467
vt 0.775068 0.856476
vt 0.775068 0.519237
vt 0.875393 0.519233
vt 0.875393 0.856472
vt 0.672243 0.519246
vt 0.650425 0.856473
vt 0.650425 0.519234
vt 0.753250 0.519240
vt 0.775068 0.856467
vt 0.753250 0.856479
vt 0.623223 0.856467
vt 0.623223 0.519228
vt 0.726048 0.519246
vt 0.726048 0.856485
vt 0.594777 0.856468
vt 0.594777 0.519229
vt 0.697602 0.519245
vt 0.672243 0.856475
vt 0.672243 0.519236
vt 0.697602 0.856483
vt 0.569418 0.519238
vt 0.569418 0.856477
vt 0.875393 0.519228
vt 0.856260 0.856476
vt 0.856260 0.519237
vt 0.956584 0.519233
vt 0.975717 0.856481
vt 0.830475 0.856481
vt 0.449665 0.129807
vt 0.224832 0.519228
vt 0.000000 0.129807
vt 0.918587 0.942514
vt 0.832554 1.000000
vt 0.775068 0.913967
vt 0.417394 0.889026
vt 0.315911 0.909213
vt 0.295724 0.807729
vt 0.142400 0.951635
vt 0.142400 0.771592
vt 0.427109 0.519228
vt 0.427109 0.519228
vt 0.142400 0.519589
vt 0.674497 0.000000
vt 0.899329 0.389421
vt 0.674497 0.519228
vt 0.672243 0.856485
vt 0.775068 0.519228
vt 0.875393 0.856467
vt 0.975717 0.519242
vt 0.224832 0.000000
vt 0.449665 0.389421
vt 0.000000 0.389421
vt 0.785993 0.887592
vt 0.806179 0.867406
vt 0.832554 0.856481
vt 0.861102 0.856481
vt 0.887476 0.867406
vt 0.907663 0.887592
vt 0.918587 0.913967
vt 0.907663 0.968889
vt 0.887476 0.989075
vt 0.861102 1.000000
vt 0.806179 0.989075
vt 0.785993 0.968889
vt 0.775068 0.942514
vt 0.315910 0.787543
vt 0.397207 0.787543
vt 0.342285 0.776618
vt 0.370833 0.776618
vt 0.417394 0.807729
vt 0.428319 0.834104
vt 0.428319 0.862652
vt 0.397208 0.909213
vt 0.370833 0.920138
vt 0.342285 0.920138
vt 0.295724 0.889027
vt 0.284799 0.862652
vt 0.284799 0.834104
vn 0.5000 0.0020 -0.8660
vn 0.5000 -0.0034 0.8660
vn -1.0000 0.0014 0.0000
vn 1.0000 -0.0014 -0.0000
vn -0.5000 -0.0020 0.8660
vn -0.5000 0.0034 -0.8660
vn 0.0000 1.0000 0.0000
vn 0.8315 -0.0000 0.5556
vn -0.9808 0.0000 -0.1951
vn 0.9808 -0.0000 0.1951
vn -0.9808 -0.0000 0.1951
vn 0.9808 0.0000 -0.1951
vn -0.8315 -0.0000 0.5556
vn 0.8315 0.0000 -0.5556
vn -0.5556 -0.0000 0.8315
vn 0.5556 0.0000 -0.8315
vn -0.1951 -0.0000 0.9808
vn -0.1951 0.0000 -0.9808
vn 0.1951 0.0000 -0.9808
vn 0.1951 -0.0000 0.9808
vn -0.5556 0.0000 -0.8315
vn 0.5556 -0.0000 0.8315
vn -0.8315 0.0000 -0.5556
vn 0.0000 -1.0000 -0.0000
usemtl マテリアル.004
s 1
f 1/1/1 2/2/1 3/3/1
f 4/4/2 5/5/2 6/6/2
f 7/7/3 8/8/3 9/9/3
f 10/10/4 6/11/4 2/12/4
f 5/5/5 11/13/5 7/14/5
f 9/15/6 1/1/6 3/3/6
f 10/16/7 1/17/7 11/18/7
f 12/19/8 13/20/8 14/21/8
f 15/22/9 16/23/9 17/24/9
f 18/25/10 14/21/10 19/26/10
f 17/24/11 20/27/11 21/28/11
f 22/29/12 19/26/12 23/30/12
f 21/31/13 24/32/13 25/33/13
f 26/34/14 23/35/14 27/36/14
f 25/33/15 28/37/15 29/38/15
f 30/39/16 27/36/16 31/40/16
f 29/38/17 32/41/17 33/42/17
f 34/43/18 35/44/18 36/45/18
f 34/43/19 31/40/19 37/46/19
f 38/47/20 32/41/20 39/48/20
f 36/49/21 40/50/21 41/51/21
f 42/52/22 39/53/22 13/20/22
f 41/51/23 43/54/23 15/22/23
f 3/55/24 6/56/24 7/57/24
f 33/58/7 18/59/7 34/60/7
f 13/61/24 24/62/24 40/63/24
f 1/1/1 10/64/1 2/2/1
f 4/4/2 44/65/2 5/5/2
f 7/7/3 11/66/3 8/8/3
f 10/10/4 4/67/4 6/11/4
f 5/5/5 44/65/5 11/13/5
f 9/15/6 8/68/6 1/1/6
f 1/17/7 8/69/7 11/18/7
f 11/18/7 44/70/7 4/71/7
f 4/71/7 10/16/7 11/18/7
f 12/19/8 42/52/8 13/20/8
f 15/22/9 43/54/9 16/23/9
f 18/25/10 12/19/10 14/21/10
f 17/24/11 16/23/11 20/27/11
f 22/29/12 18/25/12 19/26/12
f 21/31/13 20/72/13 24/32/13
f 26/34/14 22/73/14 23/35/14
f 25/33/15 24/32/15 28/37/15
f 30/39/16 26/34/16 27/36/16
f 29/38/17 28/37/17 32/41/17
f 34/43/18 37/46/18 35/44/18
f 34/43/19 30/39/19 31/40/19
f 38/47/20 33/42/20 32/41/20
f 36/49/21 35/74/21 40/50/21
f 42/52/22 38/75/22 39/53/22
f 41/51/23 40/50/23 43/54/23
f 7/57/24 9/76/24 3/55/24
f 3/55/24 2/77/24 6/56/24
f 6/56/24 5/78/24 7/57/24
f 34/60/7 36/79/7 41/80/7
f 41/80/7 15/81/7 34/60/7
f 15/81/7 17/82/7 34/60/7
f 17/82/7 21/83/7 25/84/7
f 25/84/7 29/85/7 33/58/7
f 33/58/7 38/86/7 18/59/7
f 38/86/7 42/87/7 18/59/7
f 42/87/7 12/88/7 18/59/7
f 18/59/7 22/89/7 34/60/7
f 22/89/7 26/90/7 34/60/7
f 26/90/7 30/91/7 34/60/7
f 17/82/7 25/84/7 33/58/7
f 34/60/7 17/82/7 33/58/7
f 40/63/24 35/92/24 27/93/24
f 35/92/24 37/94/24 27/93/24
f 37/94/24 31/95/24 27/93/24
f 27/93/24 23/96/24 13/61/24
f 23/96/24 19/97/24 13/61/24
f 19/97/24 14/98/24 13/61/24
f 13/61/24 39/99/24 32/100/24
f 32/100/24 28/101/24 13/61/24
f 28/101/24 24/62/24 13/61/24
f 24/62/24 20/102/24 16/103/24
f 16/103/24 43/104/24 40/63/24
f 24/62/24 16/103/24 40/63/24
f 40/63/24 27/93/24 13/61/24
