# Blender v3.1.2 OBJ File: ''
# www.blender.org
mtllib lightStick.mtl
o 円
v 0.000000 0.000000 -0.322040
v -0.123239 0.000000 -0.297526
v -0.227716 0.000000 -0.227716
v -0.297526 0.000000 -0.123239
v -0.322040 0.000000 0.000000
v -0.297526 0.000000 0.123239
v -0.227716 0.000000 0.227716
v -0.123239 0.000000 0.297526
v 0.000000 0.000000 0.322040
v 0.123239 0.000000 0.297526
v 0.227716 0.000000 0.227716
v 0.297526 0.000000 0.123239
v 0.322040 0.000000 -0.000000
v 0.297526 0.000000 -0.123239
v 0.227716 0.000000 -0.227716
v 0.123239 0.000000 -0.297526
v 0.000000 6.174387 -0.322040
v -0.123239 6.174387 -0.297526
v -0.227716 6.174387 -0.227716
v -0.297526 6.174387 -0.123239
v -0.322040 6.174387 0.000000
v -0.297526 6.174387 0.123239
v -0.227716 6.174387 0.227716
v -0.123239 6.174387 0.297526
v 0.000000 6.174387 0.322040
v 0.123239 6.174387 0.297526
v 0.227716 6.174387 0.227716
v 0.297526 6.174387 0.123239
v 0.322040 6.174387 -0.000000
v 0.297526 6.174387 -0.123239
v 0.227716 6.174387 -0.227716
v 0.123239 6.174387 -0.297526
vt 0.354492 0.928591
vt 0.400825 0.695659
vt 0.633758 0.741992
vt 0.000000 0.802529
vt 0.197471 0.670583
vt 0.329417 0.868054
vt 0.638261 0.000000
vt 0.572736 0.670583
vt 0.572736 0.000000
vt 0.172396 0.000000
vt 0.106870 0.670583
vt 0.106871 0.000000
vt 0.698799 0.000000
vt 0.638261 0.670583
vt 0.232933 0.000000
vt 0.172396 0.670583
vt 0.745132 0.000000
vt 0.698799 0.670583
vt 0.279266 0.000000
vt 0.232933 0.670583
vt 0.325599 0.000000
vt 0.279266 0.670583
vt 0.279266 0.000000
vt 0.805669 0.000000
vt 0.745132 0.670583
vt 0.745132 0.000000
vt 0.386137 0.000000
vt 0.325599 0.670583
vt 0.871194 0.000000
vt 0.805669 0.670583
vt 0.451662 0.000000
vt 0.386137 0.670583
vt 0.931731 0.000000
vt 0.871194 0.670583
vt 0.512199 0.000000
vt 0.451662 0.670583
vt 0.512199 0.670583
vt 0.512199 0.000000
vt 0.046333 0.670583
vt 0.046333 0.000000
vt 0.000000 0.670583
vt 0.000000 0.000000
vt 0.329417 0.868054
vt 0.329417 0.802529
vt 0.354492 0.741992
vt 0.461362 0.670583
vt 0.526888 0.670583
vt 0.587425 0.695659
vt 0.658833 0.802529
vt 0.658833 0.868054
vt 0.633758 0.928591
vt 0.587425 0.974925
vt 0.526887 1.000000
vt 0.461362 1.000000
vt 0.400825 0.974925
vt 0.025075 0.741992
vt 0.071409 0.695659
vt 0.131946 0.670583
vt 0.258008 0.695659
vt 0.304341 0.741992
vt 0.329417 0.802529
vt 0.304341 0.928591
vt 0.131946 1.000000
vt 0.258008 0.974925
vt 0.197471 1.000000
vt 0.071409 0.974925
vt 0.025075 0.928591
vt 0.000000 0.868054
vt 0.745132 0.670583
vt 0.279266 0.670583
vt 0.931731 0.670583
vt 0.512199 0.670583
vn 0.0000 -1.0000 0.0000
vn 0.0000 1.0000 -0.0000
vn 0.1951 0.0000 0.9808
vn -0.5556 0.0000 -0.8315
vn 0.5556 0.0000 0.8315
vn -0.8315 0.0000 -0.5556
vn 0.8315 0.0000 0.5556
vn -0.9808 0.0000 -0.1951
vn 0.9808 0.0000 0.1951
vn -0.9808 0.0000 0.1951
vn 0.9808 0.0000 -0.1951
vn -0.8315 0.0000 0.5556
vn 0.8315 0.0000 -0.5556
vn -0.5556 0.0000 0.8315
vn 0.5556 0.0000 -0.8315
vn -0.1951 0.0000 0.9808
vn -0.1951 0.0000 -0.9808
vn 0.1951 0.0000 -0.9808
usemtl マテリアル
s off
f 3/1/1 15/2/1 11/3/1
f 17/4/2 21/5/2 25/6/2
f 10/7/3 25/8/3 9/9/3
f 3/10/4 18/11/4 2/12/4
f 11/13/5 26/14/5 10/7/5
f 4/15/6 19/16/6 3/10/6
f 12/17/7 27/18/7 11/13/7
f 5/19/8 20/20/8 4/15/8
f 13/21/9 28/22/9 12/23/9
f 6/24/10 21/25/10 5/26/10
f 14/27/11 29/28/11 13/21/11
f 7/29/12 22/30/12 6/24/12
f 15/31/13 30/32/13 14/27/13
f 8/33/14 23/34/14 7/29/14
f 16/35/15 31/36/15 15/31/15
f 9/9/16 24/37/16 8/38/16
f 2/12/17 17/39/17 1/40/17
f 1/40/18 32/41/18 16/42/18
f 3/1/1 2/43/1 1/44/1
f 1/44/1 16/45/1 15/2/1
f 15/2/1 14/46/1 11/3/1
f 14/46/1 13/47/1 11/3/1
f 13/47/1 12/48/1 11/3/1
f 11/3/1 10/49/1 9/50/1
f 9/50/1 8/51/1 7/52/1
f 7/52/1 6/53/1 5/54/1
f 5/54/1 4/55/1 7/52/1
f 4/55/1 3/1/1 7/52/1
f 3/1/1 1/44/1 15/2/1
f 11/3/1 9/50/1 3/1/1
f 9/50/1 7/52/1 3/1/1
f 17/4/2 18/56/2 19/57/2
f 19/57/2 20/58/2 21/5/2
f 21/5/2 22/59/2 23/60/2
f 23/60/2 24/61/2 21/5/2
f 24/61/2 25/6/2 21/5/2
f 25/6/2 26/62/2 29/63/2
f 26/62/2 27/64/2 29/63/2
f 27/64/2 28/65/2 29/63/2
f 29/63/2 30/66/2 31/67/2
f 31/67/2 32/68/2 17/4/2
f 17/4/2 19/57/2 21/5/2
f 29/63/2 31/67/2 25/6/2
f 31/67/2 17/4/2 25/6/2
f 10/7/3 26/14/3 25/8/3
f 3/10/4 19/16/4 18/11/4
f 11/13/5 27/18/5 26/14/5
f 4/15/6 20/20/6 19/16/6
f 12/17/7 28/69/7 27/18/7
f 5/19/8 21/70/8 20/20/8
f 13/21/9 29/28/9 28/22/9
f 6/24/10 22/30/10 21/25/10
f 14/27/11 30/32/11 29/28/11
f 7/29/12 23/34/12 22/30/12
f 15/31/13 31/36/13 30/32/13
f 8/33/14 24/71/14 23/34/14
f 16/35/15 32/72/15 31/36/15
f 9/9/16 25/8/16 24/37/16
f 2/12/17 18/11/17 17/39/17
f 1/40/18 17/39/18 32/41/18
