# Blender v3.1.2 OBJ File: ''
# www.blender.org
mtllib LeftArm.mtl
o 立方体.007_立方体.001
v 0.961735 0.654385 -1.619390
v 0.961735 -0.654385 -1.619390
v -0.857516 -0.654385 -1.619390
v -0.857516 0.654385 -1.619390
v -0.857516 -0.654385 3.561866
v -0.857516 0.654385 3.561866
v 0.961735 -0.654385 3.561866
v 0.961735 0.654385 3.561866
v 1.105340 -0.838516 -3.920053
v 0.562005 -0.838516 -3.920053
v 0.575824 0.838516 -3.920053
v 0.570749 0.838516 -3.414065
v 0.544064 -0.838516 -3.414065
v 1.105340 -0.838516 -3.414065
v 1.091616 0.838516 -3.920053
v 1.095394 0.838516 -3.411100
v 1.095394 -0.838516 -3.411100
v -1.040341 -0.838516 -3.411100
v -1.040341 0.838516 -3.411100
v -1.040341 -0.838516 -1.613177
v -1.040341 0.838516 -1.613177
v 1.095394 -0.838516 -1.613177
v 1.095394 0.838516 -1.613177
v 0.521896 0.838516 -3.917885
v 0.511865 -0.838516 -3.920053
v 0.048721 -0.838516 -3.920053
v -0.503268 0.838516 -3.414065
v -0.000077 0.838516 -3.414065
v -0.004177 0.838516 -3.920053
v 0.036670 0.838516 -3.414065
v 0.036670 -0.838516 -3.414065
v 0.515513 -0.838516 -3.414065
v 0.036670 0.838516 -3.920053
v -0.503268 0.838516 -3.920053
v -0.503268 -0.838516 -3.920053
v -0.503268 -0.838516 -3.414065
v -0.037252 -0.838516 -3.414065
v 0.004555 -0.838516 -3.920053
v -0.537404 -0.838516 -3.920053
v -1.041761 -0.838516 -3.920053
v -1.041761 0.838516 -3.920053
v -1.041761 -0.838516 -3.414065
v -0.504091 -0.838516 -3.414065
v -0.552777 0.838516 -3.414065
v -0.635413 -0.839866 -3.919513
v 1.102730 -1.369603 -3.919513
v -0.635413 -1.377536 -3.919513
v 1.097419 -1.377536 -3.413525
v -0.635413 -1.377536 -3.413525
v 1.080935 -0.839866 -3.413525
v -0.635413 -0.839866 -3.413525
v 1.447097 -0.833989 -3.919935
v 1.104540 0.215909 -3.166296
v 1.104540 -0.112827 -2.781646
v 1.442914 -1.372379 -3.412010
v 1.440856 -1.369744 -3.910582
v 0.522189 0.838516 -3.414065
v -0.534449 0.838516 -3.920053
vt 0.625000 0.000000
vt 0.375000 0.000000
vt 0.375000 0.250000
vt 0.625000 0.250000
vt 0.375000 0.500000
vt 0.625000 0.500000
vt 0.375000 0.750000
vt 0.625000 0.750000
vt 0.375000 1.000000
vt 0.125000 0.500000
vt 0.125000 0.750000
vt 0.875000 0.500000
vt 0.375000 0.000000
vt 0.375000 0.239010
vt 0.625000 0.250000
vt 0.625000 0.500000
vt 0.375000 0.500000
vt 0.375000 0.750000
vt 0.375000 1.000000
vt 0.625000 1.000000
vt 0.875000 0.500000
vt 0.625000 0.750000
vt 0.625000 0.000000
vt 0.375000 0.000000
vt 0.375000 0.250000
vt 0.625000 0.250000
vt 0.375000 0.500000
vt 0.625000 0.500000
vt 0.375000 0.750000
vt 0.625000 0.750000
vt 0.375000 1.000000
vt 0.125000 0.500000
vt 0.125000 0.750000
vt 0.875000 0.500000
vt 0.625000 0.000000
vt 0.375000 0.000000
vt 0.375000 0.236924
vt 0.625000 0.500000
vt 0.625000 0.750000
vt 0.625000 0.000000
vt 0.625000 0.500000
vt 0.375000 0.500000
vt 0.375000 0.750000
vt 0.375000 1.000000
vt 0.625000 1.000000
vt 0.125000 0.500000
vt 0.125000 0.750000
vt 0.625000 0.250000
vt 0.625000 0.250000
vt 0.375000 0.250000
vt 0.375000 0.500000
vt 0.375000 0.750000
vt 0.375000 0.014375
vt 0.375000 0.000000
vt 0.375000 0.250000
vt 0.625000 0.250000
vt 0.375000 0.500000
vt 0.375000 0.750000
vt 0.625000 0.750000
vt 0.375000 1.000000
vt 0.125000 0.500000
vt 0.125000 0.750000
vt 0.875000 0.500000
vt 0.625000 0.500000
vt 0.625000 0.000000
vt 0.375000 0.250000
vt 0.625000 0.250000
vt 0.375000 0.500000
vt 0.625000 0.500000
vt 0.375000 0.750000
vt 0.625000 1.000000
vt 0.125000 0.500000
vt 0.125000 0.750000
vt 0.875000 0.500000
vt 0.625000 0.750000
vt 0.375000 0.000000
vt 0.375000 0.250000
vt 0.625000 0.250000
vt 0.625000 0.500000
vt 0.375000 0.750000
vt 0.625000 0.750000
vt 0.375000 1.000000
vt 0.125000 0.500000
vt 0.125000 0.750000
vt 0.375000 0.250000
vt 0.000000 0.000000
vt 0.000000 0.000000
vt 0.000000 0.000000
vt 0.375000 0.500000
vt 0.625000 1.000000
vt 0.875000 0.750000
vt 0.625000 0.000000
vt 0.875000 0.750000
vt 0.625000 1.000000
vt 0.875000 0.750000
vt 0.625000 0.750000
vt 0.625000 0.000000
vt 0.625000 1.000000
vt 0.875000 0.750000
vt 0.875000 0.750000
vt 0.625000 1.000000
vn 0.0000 0.0000 -1.0000
vn -1.0000 0.0000 0.0000
vn 0.0000 0.0000 1.0000
vn 1.0000 -0.0000 -0.0000
vn -0.0000 -1.0000 -0.0000
vn 0.0000 1.0000 0.0000
vn 1.0000 0.0064 -0.0057
vn 1.0000 0.0082 -0.0000
vn 1.0000 0.0077 -0.0016
vn -0.9992 0.0159 -0.0354
vn 0.0010 0.0010 -1.0000
vn 0.0000 0.0013 -1.0000
vn 0.0035 0.0003 -1.0000
vn 1.0000 -0.0045 -0.0021
vn 1.0000 -0.0060 -0.0072
vn 1.0000 -0.0056 -0.0057
vn 1.0000 0.0052 -0.0081
vn -1.0000 0.0002 0.0008
vn -1.0000 0.0006 0.0022
vn 0.0047 -0.0014 1.0000
vn 0.0013 -0.0004 1.0000
vn 0.9974 0.0290 -0.0657
vn -0.0003 -0.0010 -1.0000
vn 0.0046 -0.9999 -0.0156
vn -0.0002 1.0000 0.0007
vn -0.0008 1.0000 0.0026
vn -0.0006 1.0000 0.0019
vn 0.9988 -0.0049 0.0481
vn -0.0074 0.5815 -0.8135
vn -1.0000 0.0014 -0.0016
vn -0.9999 0.0088 -0.0063
vn -1.0000 0.0073 -0.0054
vn 0.0027 -0.4470 0.8946
vn 0.9683 0.1674 0.1854
vn 0.0126 -0.6850 -0.7284
vn 0.0093 -0.6862 -0.7273
vn 0.0101 -0.6859 -0.7276
vn -0.0264 0.0011 0.9997
vn -0.9999 0.0117 0.0042
vn -0.0150 0.9998 0.0155
vn -0.0057 -0.0018 1.0000
vn 1.0000 0.0059 -0.0074
vn -0.9999 0.0082 -0.0100
vn 0.0045 0.0000 -1.0000
vn 1.0000 -0.0040 -0.0006
vn 0.9964 -0.0221 0.0823
vn -0.9997 -0.0072 -0.0238
vn -1.0000 0.0008 0.0028
vn 0.0061 -0.0018 1.0000
vn 0.9993 -0.0018 0.0362
vn 0.9995 0.0306 0.0110
vn -1.0000 -0.0005 -0.0004
vn 0.9664 0.1954 0.1670
vn 0.0134 -0.6848 -0.7286
vn -0.0006 0.0175 0.9998
vn 0.0003 1.0000 0.0053
usemtl None.001
s 1
f 1/1/1 2/2/1 3/3/1
f 4/4/2 3/3/2 5/5/2
f 6/6/3 5/5/3 7/7/3
f 8/8/4 7/7/4 2/9/4
f 5/5/5 3/10/5 2/11/5
f 4/12/6 6/6/6 8/8/6
f 9/13/1 10/14/1 11/15/1
f 12/16/3 13/17/3 14/18/3
f 14/18/7 9/19/8 15/20/9
f 10/14/10 13/17/10 12/16/10
f 11/21/6 12/16/6 16/22/6
f 16/23/1 17/24/1 18/25/1
f 19/26/2 18/25/2 20/27/2
f 21/28/3 20/27/3 22/29/3
f 23/30/4 22/29/4 17/31/4
f 20/27/5 18/32/5 17/33/5
f 19/34/6 21/28/6 23/30/6
f 24/35/11 25/36/12 26/37/13
f 27/38/6 28/39/6 29/40/6
f 30/41/3 31/42/3 32/43/3
f 32/43/14 25/44/15 24/45/16
f 26/46/5 25/47/5 32/43/5
f 24/45/6 33/48/6 30/41/6
f 34/49/2 35/50/2 36/51/2
f 27/38/3 36/51/3 37/52/3
f 38/53/17 29/40/17 28/39/17
f 31/42/2 30/41/2 33/48/2
f 39/54/1 40/55/1 41/56/1
f 41/56/18 40/55/2 42/57/19
f 42/57/20 43/58/3 44/59/21
f 44/59/22 43/58/22 39/60/22
f 42/57/5 40/61/5 39/62/5
f 41/63/6 19/64/6 44/59/6
f 45/65/23 9/13/23 46/66/23
f 47/67/24 46/66/24 48/68/24
f 49/69/3 48/68/3 50/70/3
f 50/70/25 9/19/26 45/71/27
f 46/72/28 9/73/28 50/70/28
f 47/74/2 49/69/2 51/75/2
f 52/76/29 9/77/29 53/78/29
f 9/77/30 48/68/31 54/79/32
f 48/68/33 55/80/33 54/81/33
f 54/81/34 55/80/34 52/82/34
f 9/83/35 52/84/36 55/80/37
f 9/13/38 46/66/38 56/85/38
f 56/86/39 55/87/39 52/88/39
f 46/66/40 48/68/40 55/89/40
f 29/40/1 38/53/1 35/50/1
f 1/1/1 3/3/1 4/4/1
f 4/4/2 5/5/2 6/6/2
f 6/6/3 7/7/3 8/8/3
f 8/8/4 2/9/4 1/90/4
f 5/5/5 2/11/5 7/7/5
f 4/12/6 8/8/6 1/91/6
f 9/13/1 11/15/1 15/92/1
f 12/16/41 14/18/41 16/22/41
f 14/18/7 15/20/9 16/22/42
f 10/14/43 12/16/43 11/21/43
f 11/21/6 16/22/6 15/93/6
f 16/23/1 18/25/1 19/26/1
f 19/26/2 20/27/2 21/28/2
f 21/28/3 22/29/3 23/30/3
f 23/30/4 17/31/4 16/94/4
f 20/27/5 17/33/5 22/29/5
f 19/34/6 23/30/6 16/95/6
f 24/35/11 26/37/13 33/48/44
f 27/38/6 29/40/6 34/49/6
f 30/41/3 32/43/3 57/96/3
f 32/43/14 24/45/16 57/96/45
f 26/46/5 32/43/5 31/42/5
f 24/45/6 30/41/6 57/96/6
f 34/49/2 36/51/2 27/38/2
f 27/38/3 37/52/3 28/39/3
f 38/53/46 28/39/46 37/52/46
f 31/42/47 33/48/47 26/37/47
f 39/54/1 41/56/1 58/97/1
f 41/56/18 42/57/19 19/64/48
f 42/57/20 44/59/21 19/64/49
f 44/59/50 39/60/50 58/98/50
f 42/57/5 39/62/5 43/58/5
f 41/63/6 44/59/6 58/99/6
f 45/65/1 46/66/1 47/67/1
f 47/67/5 48/68/5 49/69/5
f 49/69/3 50/70/3 51/75/3
f 50/70/25 45/71/27 51/75/6
f 46/72/51 50/70/51 48/68/51
f 47/74/2 51/75/2 45/100/2
f 9/77/30 54/79/32 53/78/52
f 54/81/53 52/82/53 53/101/53
f 9/83/35 55/80/37 48/68/54
f 9/13/55 56/85/55 52/76/55
f 46/66/56 55/89/56 56/85/56
f 29/40/1 35/50/1 34/49/1
l 38 26
l 25 10
